<?xml version="1.0" encoding="UTF-8" standalone="no"?>
<!DOCTYPE svg PUBLIC "-//W3C//DTD SVG 1.1//EN" "http://www.w3.org/Graphics/SVG/1.1/DTD/svg11.dtd">
<svg version="1.1" xmlns="http://www.w3.org/2000/svg" xmlns:xlink="http://www.w3.org/1999/xlink" preserveAspectRatio="xMidYMid meet" viewBox="0 0 735 224" width="735" height="224"><defs><path d="M517.35 161.12L517.35 81.41C553.95 87.68 569.75 87.68 564.75 81.41C557.25 72 522.22 66 521.71 58.99C521.19 51.97 572.92 59.58 562.69 53.36C552.46 47.13 522.33 33.91 519.02 26.6C515.71 19.29 550.49 30.34 549.46 24.11C548.78 19.96 536.91 11.92 513.86 0C502.73 6.25 492.99 14.04 484.65 23.35C472.15 37.32 514.19 18.02 510.38 26.6C506.57 35.19 474.64 50.47 469.42 57.71C464.19 64.94 507.36 51.27 506.89 60.37C506.41 69.48 469.63 71.97 468 81.41C466.92 87.7 480.29 87.14 508.13 79.73L505.47 161.12L517.35 161.12Z" id="daTL8lfTz"></path><path d="M241.78 150.61L241.78 81.63C269.92 86.5 281.82 86.22 277.49 80.79C271 72.65 246 68.29 245.55 62.22C245.1 56.16 283.67 54.65 274.81 49.26C265.96 43.87 246.09 40.53 243.23 34.2C240.36 27.87 260.96 33.09 260.07 27.7C259.47 24.11 250.86 17.76 234.24 8.66C219.54 19.79 212.49 26.34 213.11 28.31C214.03 31.27 238.48 28.89 235.19 36.32C231.89 43.76 204.26 49.27 199.74 55.52C195.21 61.78 233.14 55.55 232.73 63.42C232.32 71.3 199.42 71.27 198.02 79.44C197.08 84.89 209.01 85.13 233.8 80.18L231.5 150.61L241.78 150.61Z" id="e20y1LI1DG"></path><path d="M0 225.56L735 225.56L735 184.5C678.76 116.42 626.81 82.27 579.16 82.06C507.69 81.73 488.2 70.65 452.51 64.56C416.81 58.46 355.19 66.6 352.48 66.82C295.1 71.49 278.09 63.94 243.8 74.68C212.78 84.4 171.62 86.88 146.23 103.03C110.59 125.71 61.85 151.94 0 181.74L0 225.56Z" id="amwH4vfn9"></path><radialGradient id="gradientarOCuxKwB" gradientUnits="userSpaceOnUse" cx="373.88" cy="330.73" dx="383.14" dy="103.71" r="227.21"><stop style="stop-color: #5c7eab;stop-opacity: 1" offset="0%"></stop><stop style="stop-color: #3a466e;stop-opacity: 1" offset="100%"></stop></radialGradient><path d="M103.36 225.56L104.33 197.59C164.59 207.92 190.61 207.92 182.37 197.59C170.02 182.1 112.35 172.22 111.5 160.68C110.65 149.13 195.82 161.66 178.97 151.4C162.13 141.15 112.52 119.39 107.07 107.36C101.63 95.32 158.89 113.51 157.2 103.25C156.07 96.42 136.53 83.18 98.58 63.55C80.25 73.85 64.22 86.67 50.49 102C29.9 125.01 99.11 93.22 92.84 107.36C86.57 121.5 34.01 146.66 25.4 158.57C16.79 170.48 87.88 147.97 87.1 162.96C86.32 177.95 25.74 182.05 23.07 197.59C21.29 207.95 43.31 207.03 89.15 194.83L87.68 225.56L103.36 225.56Z" id="g1E0Kn59wO"></path><path d="M632.77 225.56L632.32 205.17C578.79 214.43 556.15 213.9 564.38 203.57C576.73 188.08 624.3 179.8 625.15 168.25C626 156.71 552.63 153.84 569.48 143.58C586.32 133.33 624.13 126.97 629.57 114.93C635.02 102.89 595.84 112.82 597.53 102.57C598.66 95.73 615.04 83.66 646.68 66.34C674.64 87.51 688.04 99.97 686.87 103.73C685.12 109.36 638.6 104.83 644.87 118.98C651.14 133.12 703.7 143.6 712.31 155.5C720.92 167.41 648.77 155.54 649.55 170.53C650.33 185.52 712.91 185.47 715.58 201.01C717.37 211.37 694.67 211.83 647.5 202.41L646.91 225.56L632.77 225.56Z" id="aV8EuyE4"></path></defs><g><g><g><use xlink:href="#daTL8lfTz" opacity="1" fill="#13172c" fill-opacity="1"></use><g><use xlink:href="#daTL8lfTz" opacity="1" fill-opacity="0" stroke="#000000" stroke-width="0" stroke-opacity="1"></use></g></g><g><use xlink:href="#e20y1LI1DG" opacity="1" fill="#13172c" fill-opacity="1"></use><g><use xlink:href="#e20y1LI1DG" opacity="1" fill-opacity="0" stroke="#000000" stroke-width="0" stroke-opacity="1"></use></g></g><g><use xlink:href="#amwH4vfn9" opacity="1" fill="url(#gradientarOCuxKwB)"></use><g><use xlink:href="#amwH4vfn9" opacity="1" fill-opacity="0" stroke="#000000" stroke-width="0" stroke-opacity="1"></use></g></g><g><use xlink:href="#g1E0Kn59wO" opacity="1" fill="#13172c" fill-opacity="1"></use><g><use xlink:href="#g1E0Kn59wO" opacity="1" fill-opacity="0" stroke="#000000" stroke-width="0" stroke-opacity="1"></use></g></g><g><use xlink:href="#aV8EuyE4" opacity="1" fill="#13172c" fill-opacity="1"></use><g><use xlink:href="#aV8EuyE4" opacity="1" fill-opacity="0" stroke="#000000" stroke-width="0" stroke-opacity="1"></use></g></g></g></g></svg>