<?xml version="1.0" encoding="UTF-8" standalone="no"?>
<!DOCTYPE svg PUBLIC "-//W3C//DTD SVG 1.1//EN" "http://www.w3.org/Graphics/SVG/1.1/DTD/svg11.dtd">
<svg version="1.1" xmlns="http://www.w3.org/2000/svg" xmlns:xlink="http://www.w3.org/1999/xlink" preserveAspectRatio="xMidYMid meet" viewBox="0 0 735 1050" width="735" height="1050"><defs><path d="M141.67 22.68C141.67 34.19 132.22 43.54 120.59 43.54C108.95 43.54 99.5 34.19 99.5 22.68C99.5 11.17 108.95 1.83 120.59 1.83C132.22 1.83 141.67 11.17 141.67 22.68Z" id="gY3vCFpjM"></path><path d="M-3.33 1055.43L743.4 1054.32L737.31 161.04L678.93 119.49L613.04 148.58L553.27 113.94L508.8 83.47L437.91 148.58L394.82 127.8L350.34 119.49L332.27 98.63L234.98 59.92L93.21 136.11L59.85 101.48L33.44 127.8L0.55 96.31L-3.33 1055.43Z" id="d3QqNPPg0W"></path><path d="M33.38 128.17L18.29 113.42L59.83 101.51L33.38 128.17Z" id="bDvvxsrPq"></path><path d="M159.4 152.94L212.54 146.34L133.02 212.79L179.75 267.29L103.19 212.79L-0.27 212.79L-0.6 184.83L234.63 60.14L159.4 152.94Z" id="d3qhMU0Vdz"></path><path d="M375.85 124.28L395.2 171.81L350.27 119.4L375.85 124.28Z" id="b1YGiUJEEu"></path><path d="M499.54 131.92L512.32 131.92L478.76 164.67L438.01 148.59L508.73 83.49L499.54 131.92Z" id="blshNmNzG"></path><path d="M612.98 148.65L631.06 159.96L678.93 119.58L612.98 148.65Z" id="aTnLEYQ7L"></path><path d="M118.73 29.91C118.73 32.31 116.77 34.26 114.37 34.26C111.96 34.26 110 32.31 110 29.91C110 27.51 111.96 25.56 114.37 25.56C116.77 25.56 118.73 27.51 118.73 29.91Z" id="a2umG0lQFT"></path><path d="M131.86 27.1C131.86 28.71 130.55 30.02 128.93 30.02C127.31 30.02 126 28.71 126 27.1C126 25.49 127.31 24.18 128.93 24.18C130.55 24.18 131.86 25.49 131.86 27.1Z" id="d3V03XOWCH"></path><path d="M110.44 15.19C110.44 16.34 109.51 17.27 108.36 17.27C107.21 17.27 106.28 16.34 106.28 15.19C106.28 14.05 107.21 13.12 108.36 13.12C109.51 13.12 110.44 14.05 110.44 15.19Z" id="b1uiazM92V"></path><path d="M122.59 10.21C122.59 11.81 121.28 13.12 119.67 13.12C118.06 13.12 116.75 11.81 116.75 10.21C116.75 8.6 118.06 7.29 119.67 7.29C121.28 7.29 122.59 8.6 122.59 10.21Z" id="a12PndSHt"></path></defs><g><g><g><use xlink:href="#gY3vCFpjM" opacity="1" fill="#cfcece" fill-opacity="1"></use><g><use xlink:href="#gY3vCFpjM" opacity="1" fill-opacity="0" stroke="#21c529" stroke-width="0" stroke-opacity="1"></use></g><g><filter id="shadow2463425" x="78.5" y="-19.17" width="86.17" height="85.71" filterUnits="userSpaceOnUse" primitiveUnits="userSpaceOnUse"><feFlood></feFlood><feComposite in2="SourceAlpha" operator="out"></feComposite><feGaussianBlur stdDeviation="2.45"></feGaussianBlur><feOffset dx="2" dy="2" result="afterOffset"></feOffset><feFlood flood-color="#ffffff" flood-opacity="1"></feFlood><feComposite in2="afterOffset" operator="in"></feComposite><feMorphology operator="dilate" radius="2"></feMorphology><feComposite in2="SourceAlpha" operator="in"></feComposite></filter><path d="M141.67 22.68C141.67 34.19 132.22 43.54 120.59 43.54C108.95 43.54 99.5 34.19 99.5 22.68C99.5 11.17 108.95 1.83 120.59 1.83C132.22 1.83 141.67 11.17 141.67 22.68Z" id="f1MnesCKPj" fill="white" fill-opacity="1" filter="url(#shadow2463425)"></path></g></g><g><use xlink:href="#d3QqNPPg0W" opacity="1" fill="#314260" fill-opacity="1"></use><g><use xlink:href="#d3QqNPPg0W" opacity="1" fill-opacity="0" stroke="#000000" stroke-width="0" stroke-opacity="1"></use></g></g><g><use xlink:href="#bDvvxsrPq" opacity="1" fill="#697c9f" fill-opacity="1"></use><g><use xlink:href="#bDvvxsrPq" opacity="1" fill-opacity="0" stroke="#000000" stroke-width="0" stroke-opacity="1"></use></g></g><g><use xlink:href="#d3qhMU0Vdz" opacity="1" fill="#697c9f" fill-opacity="1"></use><g><use xlink:href="#d3qhMU0Vdz" opacity="1" fill-opacity="0" stroke="#000000" stroke-width="0" stroke-opacity="1"></use></g></g><g><use xlink:href="#b1YGiUJEEu" opacity="1" fill="#697c9f" fill-opacity="1"></use><g><use xlink:href="#b1YGiUJEEu" opacity="1" fill-opacity="0" stroke="#000000" stroke-width="0" stroke-opacity="1"></use></g></g><g><use xlink:href="#blshNmNzG" opacity="1" fill="#697c9f" fill-opacity="1"></use><g><use xlink:href="#blshNmNzG" opacity="1" fill-opacity="0" stroke="#000000" stroke-width="0" stroke-opacity="1"></use></g></g><g><use xlink:href="#aTnLEYQ7L" opacity="1" fill="#697c9f" fill-opacity="1"></use><g><use xlink:href="#aTnLEYQ7L" opacity="1" fill-opacity="0" stroke="#000000" stroke-width="0" stroke-opacity="1"></use></g></g><g><use xlink:href="#a2umG0lQFT" opacity="1" fill="#7c7c7c" fill-opacity="0.69"></use><g><use xlink:href="#a2umG0lQFT" opacity="1" fill-opacity="0" stroke="#cc30f2" stroke-width="0" stroke-opacity="1"></use></g></g><g><use xlink:href="#d3V03XOWCH" opacity="1" fill="#969696" fill-opacity="1"></use><g><use xlink:href="#d3V03XOWCH" opacity="1" fill-opacity="0" stroke="#ea7e10" stroke-width="0" stroke-opacity="1"></use></g></g><g><use xlink:href="#b1uiazM92V" opacity="1" fill="#969696" fill-opacity="1"></use><g><use xlink:href="#b1uiazM92V" opacity="1" fill-opacity="0" stroke="#e45dfa" stroke-width="0" stroke-opacity="1"></use></g></g><g><use xlink:href="#a12PndSHt" opacity="1" fill="#969696" fill-opacity="1"></use><g><use xlink:href="#a12PndSHt" opacity="1" fill-opacity="0" stroke="#81edad" stroke-width="0" stroke-opacity="1"></use></g></g></g></g></svg>