<?xml version="1.0" encoding="UTF-8" standalone="no"?>
<!DOCTYPE svg PUBLIC "-//W3C//DTD SVG 1.1//EN" "http://www.w3.org/Graphics/SVG/1.1/DTD/svg11.dtd">
<svg version="1.1" xmlns="http://www.w3.org/2000/svg" xmlns:xlink="http://www.w3.org/1999/xlink" preserveAspectRatio="xMidYMid meet" viewBox="0 0 735 1050" width="735" height="1050"><defs><path d="M9.83 182.21C9.83 181.25 10.51 180.36 11.26 179.61C12.15 178.79 12.69 177.91 13.44 177.02C14.26 176 15.22 175.18 15.36 173.95C13.85 172.93 12.42 176.27 10.44 175.79C9.08 175.45 9.76 173.95 10.58 173.06C12.42 171.01 13.65 168.76 14.33 166.37C14.67 165.21 14.95 163.98 15.15 162.76C15.22 162.28 15.15 159.69 16.65 160.37C17.06 160.57 17.27 160.98 17.33 161.39C17.95 163.37 18.49 165.42 19.25 167.4C19.79 168.97 20.06 171.15 21.43 172.45C22.18 173.2 23.07 173.74 23 174.77C23 174.84 23 174.9 22.93 174.97C22.86 175.11 22.66 175.11 22.52 175.18C20.95 175.59 19.86 174.7 18.84 173.95C18.7 173.81 18.56 173.74 18.36 173.68C18.15 173.61 17.95 173.61 17.81 173.74C17.47 174.02 17.74 174.77 17.81 175.11C18.02 176.13 18.7 177.09 19.52 177.91C20.81 179.27 22.59 180.36 23.61 181.87C23.68 181.93 23.75 182.07 23.82 182.21C24.35 182.21 26.98 182.21 31.73 182.21C63.71 205.96 81.48 219.15 85.03 221.79C85.92 220.36 87.56 219.26 88.86 218.04C89.61 217.28 90.29 216.53 90.63 215.65C90.7 215.44 91.11 214.62 90.9 214.42C90.49 213.94 89.81 214.55 89.61 214.83C89.26 215.24 88.86 215.71 88.45 216.12C88.1 216.47 87.76 216.74 87.35 216.94C86.88 217.15 86.33 217.22 85.85 217.08C85.24 216.87 84.9 216.33 84.9 215.78C84.83 214.96 85.31 214.21 85.92 213.53C86.53 212.85 87.29 212.3 88.04 211.69C88.58 211.28 89.13 210.8 89.61 210.32C90.15 209.85 92.4 206.71 90.7 206.3C90.29 206.23 89.88 206.37 89.54 206.57C89.2 206.77 88.99 207.05 88.72 207.32C88.04 207.87 87.08 208.21 86.06 208.14C85.78 208.14 85.58 208.07 85.37 208C85.03 207.8 84.97 207.53 84.9 207.18C84.9 206.23 85.58 205.41 86.4 204.59C87.29 203.77 87.83 202.88 88.58 202C89.4 200.97 90.36 200.15 90.49 198.93C88.99 197.9 87.56 201.25 85.58 200.77C84.21 200.43 84.9 198.93 85.72 198.04C87.56 195.99 88.79 193.74 89.47 191.35C89.81 190.19 90.08 188.96 90.29 187.73C90.36 187.26 90.29 184.66 91.79 185.35C92.2 185.55 92.4 185.96 92.47 186.37C93.09 188.35 93.63 190.4 94.38 192.37C94.93 193.94 95.2 196.13 96.57 197.43C97.32 198.18 98.2 198.72 98.14 199.75C98.14 199.81 98.14 199.88 98.07 199.95C98 200.09 97.8 200.09 97.66 200.15C96.09 200.56 95 199.68 93.97 198.93C93.84 198.86 93.7 198.72 93.5 198.65C93.29 198.59 93.09 198.59 92.95 198.72C92.61 198.99 92.88 199.75 92.95 200.09C93.15 201.11 93.84 202.07 94.66 202.88C95.95 204.25 97.73 205.34 98.75 206.84C98.96 207.12 99.16 207.46 99.09 207.8C99.02 208.48 98.14 208.82 97.39 208.82C96.29 208.89 95.68 208.28 95.34 207.59C95.07 207.12 94.86 206.64 94.25 206.43C94.11 206.37 93.91 206.37 93.77 206.43C93.7 206.5 93.7 206.5 93.7 206.57C93.63 207.53 93.91 208.48 94.45 209.37C95 210.26 95.88 210.87 96.91 211.55C97.45 211.89 97.93 212.3 98.34 212.78C98.61 213.12 98.75 213.53 98.68 213.87C98.61 214.28 98.27 214.62 97.8 214.76C97.11 214.96 96.36 214.69 95.88 214.28C95.61 214.08 94.18 212.37 93.7 213.05C93.5 213.26 93.91 214.21 93.97 214.49C94.25 215.37 94.59 216.26 95.07 217.15C95.13 217.22 95.2 217.35 95.27 217.42C95.46 217.28 96.42 216.57 98.14 215.31C116.85 215.31 127.25 215.31 129.32 215.31C129.26 214.01 130.35 212.64 131.37 211.76C133.01 210.32 135.06 208.69 134.65 206.77C132.94 206.91 132.46 209.1 130.76 209.03C129.46 209.03 128.98 207.73 129.26 206.84C129.87 204.86 132.05 203.5 133.62 202C134.37 201.25 135.06 200.5 135.4 199.61C135.47 199.4 135.88 198.59 135.67 198.38C135.26 197.9 134.58 198.52 134.37 198.79C134.03 199.2 133.62 199.68 133.21 200.09C132.87 200.43 132.53 200.7 132.12 200.91C131.64 201.11 131.1 201.18 130.62 201.04C130.01 200.84 129.67 200.29 129.67 199.75C129.6 198.93 130.08 198.18 130.69 197.49C131.3 196.81 132.05 196.26 132.81 195.65C133.35 195.24 133.9 194.76 134.37 194.29C134.92 193.81 137.17 190.67 135.47 190.26C135.06 190.19 134.65 190.33 134.31 190.53C133.97 190.74 133.76 191.01 133.49 191.28C132.81 191.83 131.85 192.17 130.83 192.1C130.55 192.1 130.35 192.03 130.14 191.97C129.8 191.76 129.73 191.49 129.67 191.15C129.67 190.19 130.35 189.37 131.17 188.55C132.05 187.73 132.6 186.85 133.35 185.96C134.17 184.94 135.13 184.12 135.26 182.89C133.76 181.87 132.33 185.21 130.35 184.73C128.98 184.39 129.67 182.89 130.48 182C132.33 179.95 133.56 177.7 134.24 175.31C134.58 174.15 134.85 172.93 135.06 171.7C135.13 171.22 135.06 168.63 136.56 169.31C136.97 169.51 137.17 169.92 137.24 170.33C137.86 172.31 138.4 174.36 139.15 176.34C139.7 177.91 139.97 180.09 141.34 181.39C142.09 182.14 142.97 182.68 142.91 183.71C142.91 183.78 142.91 183.84 142.84 183.91C142.77 184.05 142.56 184.05 142.43 184.12C140.86 184.53 139.77 183.64 138.74 182.89C138.61 182.82 138.47 182.68 138.26 182.62C138.06 182.55 137.86 182.55 137.72 182.68C137.38 182.96 137.65 183.71 137.72 184.05C137.92 185.07 138.61 186.03 139.42 186.85C140.72 188.21 142.5 189.3 143.52 190.81C143.72 191.08 143.93 191.42 143.86 191.76C143.79 192.44 142.91 192.78 142.15 192.78C141.06 192.85 140.45 192.24 140.11 191.56C139.83 191.08 139.63 190.6 139.02 190.4C138.88 190.33 138.67 190.33 138.54 190.4C138.47 190.46 138.47 190.46 138.47 190.53C138.4 191.49 138.67 192.44 139.22 193.33C139.77 194.22 140.65 194.83 141.68 195.51C142.22 195.86 142.7 196.26 143.11 196.74C143.38 197.08 143.52 197.49 143.45 197.83C143.38 198.24 143.04 198.59 142.56 198.72C141.88 198.93 141.13 198.65 140.65 198.24C140.38 198.04 138.95 196.33 138.47 197.02C138.26 197.22 138.67 198.18 138.74 198.45C139.02 199.34 139.36 200.22 139.83 201.11C140.79 202.88 142.22 204.45 144 205.82C144.75 206.37 145.64 207.05 145.57 207.87C145.5 208.96 143.66 209.44 142.43 209.16C140.72 208.82 140.79 207.46 139.49 206.77C139.42 206.71 139.29 206.71 139.22 206.71C138.95 206.71 138.95 206.98 138.95 207.18C139.36 209.03 140.31 210.73 141.75 212.23C142.5 212.98 143.31 213.74 143.93 214.55C144.07 214.76 144.2 215.03 144.34 215.24C145.22 215.24 152.26 215.24 153.14 215.24C153.48 214.76 153.89 214.28 154.37 213.94C154.98 213.46 155.67 213.12 156.21 212.64C156.62 212.37 158.19 210.32 156.55 210.39C156.35 210.39 156.14 210.46 156.01 210.6C155.6 210.87 155.39 211.21 154.98 211.48C154.64 211.76 154.03 211.96 153.55 211.82C152.87 211.62 152.94 210.87 153.14 210.39C153.62 209.3 154.44 208.28 155.39 207.39C156.28 206.57 157.85 205.75 157.37 204.59C157.31 204.45 157.24 204.32 157.03 204.18C156.76 204.04 156.35 204.04 156.01 204.18C155.67 204.32 155.46 204.52 155.26 204.73C154.92 205 153.48 206.77 152.87 205.82C152.8 205.68 152.8 205.55 152.8 205.41C152.87 204.04 153.48 202.75 154.51 201.59C155.46 200.56 156.76 199.68 157.37 198.59C157.71 197.9 157.78 196.67 156.55 196.67C155.46 196.67 154.71 197.63 153.89 197.97C153.21 198.24 152.19 198.18 151.98 197.63C151.91 197.43 151.98 197.15 152.05 196.95C152.53 195.72 153.48 194.49 154.71 193.6C155.87 192.72 156.9 192.24 157.58 191.01C157.85 190.53 157.99 189.92 157.37 189.65C156.96 189.44 156.35 189.58 155.94 189.85C155.53 190.12 155.26 190.46 154.92 190.74C154.51 191.01 153.96 191.15 153.48 190.94C153.14 190.81 153.01 190.4 153.07 190.12C153.14 189.85 153.35 189.58 153.55 189.3C154.23 188.42 155.05 187.6 155.74 186.78C156.28 186.1 157.24 185.28 157.37 184.53C157.44 184.25 157.37 183.91 157.03 183.78C156.83 183.71 156.49 183.78 156.28 183.84C156.08 183.98 155.94 184.12 155.74 184.25C155.33 184.53 154.85 184.73 154.3 184.8C153.96 184.87 153.55 184.8 153.35 184.6C153.14 184.46 153.14 184.19 153.14 183.98C153.28 183.09 154.23 182.41 155.12 181.8C155.67 181.39 158.47 178.86 157.17 178.32C156.14 177.91 154.85 180.23 153.82 179.27C153.55 179 153.55 178.59 153.69 178.32C153.82 177.98 154.17 177.63 154.58 177.43C155.05 177.16 155.67 176.95 156.21 176.75C156.9 176.47 158.6 174.7 157.37 174.29C156.42 173.95 155.74 175.04 155.05 175.31C154.85 175.38 154.51 175.45 154.3 175.31C154.3 175.31 154.3 175.31 154.3 175.31C154.23 175.25 154.23 175.18 154.23 175.11C154.17 174.02 154.92 172.93 155.74 172.04C156.55 171.08 157.44 170.2 157.71 169.04C157.78 168.83 157.78 168.63 157.65 168.49C157.51 168.28 157.31 168.15 157.03 168.22C156.62 168.28 156.9 168.83 156.49 169.04C156.14 169.24 155.53 169.17 155.26 169.04C154.71 168.76 154.58 168.15 154.78 167.67C154.98 167.19 155.39 166.78 155.8 166.37C157.03 165.08 157.85 163.64 158.26 162.07C158.67 160.57 158.33 159.14 158.4 157.64C158.4 157.23 158.33 155.25 159.22 155.25C160.03 155.32 160.1 157.02 160.17 157.43C160.44 160.78 160.85 164.39 163.72 166.99C164.13 167.33 164.54 167.67 164.61 168.08C164.68 168.49 164.33 168.97 163.86 169.1C163.38 169.31 162.7 169.24 162.29 168.9C162.01 168.69 161.67 168.15 161.19 168.49C160.99 168.63 160.92 168.83 160.92 169.04C160.79 170.4 161.67 171.76 162.7 172.93C163.72 174.09 164.81 175.25 165.43 176.54C165.63 176.95 165.7 177.43 165.56 177.84C165.43 178.25 164.95 178.66 164.33 178.66C163.38 178.73 163.24 178.04 162.49 177.77C162.15 177.63 161.6 177.63 161.33 177.84C161.13 177.98 161.13 178.18 161.13 178.38C161.19 179.41 162.42 180.16 163.45 180.91C164.61 181.73 165.49 182.82 166.11 183.91C166.25 184.25 166.38 184.6 166.38 184.94C166.38 185.28 166.18 185.69 165.77 185.82C165.15 186.1 164.27 185.96 163.79 185.55C163.24 185.21 162.97 184.66 162.56 184.19C162.36 183.91 162.08 183.64 161.67 183.57C160.03 183.3 161.19 185.35 161.54 185.69C163.52 187.6 166.18 189.44 166.04 191.83C166.04 192.24 165.84 192.65 165.36 192.78C164.68 192.99 163.99 192.51 163.52 192.03C163.24 191.76 161.4 188.89 161.13 190.4C160.92 191.83 162.36 192.44 163.38 193.4C164.54 194.49 165.43 195.72 165.97 197.02C166.18 197.56 166.25 198.38 165.49 198.59C164.33 198.93 163.99 197.77 163.31 197.43C162.63 197.02 161.6 197.22 161.4 197.9C161.26 198.31 161.47 198.79 161.81 199.13C163.04 200.7 165.49 201.66 166.31 203.36C166.52 203.84 166.59 204.45 166.04 204.73C165.15 205.21 164.27 204.39 163.72 203.98C163.52 203.84 163.31 203.7 163.04 203.7C162.76 203.7 162.56 203.91 162.49 204.11C162.42 204.32 162.49 204.52 162.56 204.73C163.31 206.5 165.36 207.25 166.72 208.62C167.34 209.23 167.75 209.91 167.95 210.66C168.02 211.01 168.02 211.42 167.88 211.76C167.68 212.1 167.27 212.37 166.72 212.37C166.11 212.37 165.63 211.89 165.43 211.48C165.22 211.07 165.08 210.53 164.61 210.19C164.06 209.78 162.9 209.85 162.83 210.53C162.76 211.07 163.92 211.76 164.27 212.17C165.08 213.12 165.84 214.08 166.65 215.03C167.29 215.03 170.48 215.03 176.21 215.03C190.99 226.01 199.2 232.1 200.85 233.32C201.25 232.91 201.8 232.5 202.28 232.16C203.92 230.93 205.08 229.36 205.69 227.73C204.94 228.41 204.05 229.09 203.1 229.57C202.42 229.98 201.66 229.91 201.39 229.23C201.25 228.95 201.32 228.61 201.32 228.34C201.39 227.73 201.53 227.04 201.94 226.43C202.55 225.41 203.71 224.65 204.67 223.84C205.62 223.02 206.44 221.86 206.1 220.83C206.03 220.63 205.96 220.49 205.76 220.42C205.42 220.29 205.01 220.49 204.8 220.76C204.39 221.31 204.39 221.65 203.44 221.45C202.82 221.31 202.35 220.7 202.42 220.22C202.42 219.81 202.69 219.47 202.96 219.13C204.39 217.35 207.12 215.71 206.71 213.39C206.71 213.26 206.65 213.05 206.44 212.92C206.03 212.64 205.42 212.98 205.08 213.33C204.74 213.67 204.33 214.08 203.78 213.94C203.3 213.8 203.3 213.26 203.44 212.92C204.05 211.14 205.55 209.71 206.51 208C206.78 207.59 206.99 207.12 206.92 206.64C206.92 206.57 206.85 206.43 206.78 206.37C206.58 206.23 206.24 206.23 206.03 206.37C205.55 206.71 205.49 207.32 204.67 207.39C203.92 207.46 203.3 206.77 203.37 206.23C203.44 205.68 203.92 205.14 204.33 204.66C207.33 201.04 207.33 196.33 209.17 192.37C209.24 192.24 209.31 192.03 209.51 191.97C209.85 191.76 210.4 191.97 210.6 192.24C210.81 192.51 210.74 192.85 210.67 193.19C210.26 195.92 210.95 198.65 211.63 201.32C211.9 202.34 212.17 203.36 212.65 204.32C213.27 205.55 214.22 206.71 214.9 208C215.25 208.62 215.31 209.57 214.49 209.78C213.4 210.05 212.65 208.75 211.49 208.75C209.65 208.82 211.08 210.66 211.42 211.21C212.24 212.44 213.61 213.6 213.68 215.03C213.68 215.24 213.68 215.44 213.54 215.58C212.52 216.74 211.15 214.9 210.74 214.42C210.54 214.21 210.13 214.08 209.85 214.21C209.58 214.35 209.58 214.62 209.58 214.9C209.99 217.76 213.95 219.54 215.04 222.27C215.18 222.61 215.25 223.02 215.04 223.29C214.56 224.04 212.99 223.84 212.24 223.29C211.7 222.88 211.36 222.33 210.81 221.93C210.26 221.52 209.17 221.31 209.44 222.27C209.51 222.61 209.85 222.88 210.13 223.09C211.01 223.77 211.83 224.52 212.79 225.13C213.27 225.47 213.81 225.82 214.15 226.16C214.63 226.63 214.9 227.25 215.11 227.79C215.31 228.27 215.52 228.95 214.97 229.3C214.63 229.5 214.08 229.5 213.74 229.36C213.33 229.23 212.99 228.95 212.72 228.75C212.24 228.34 211.83 227.86 211.49 227.38C211.29 227.25 210.95 227.38 210.81 227.59C210.67 227.79 210.74 228 210.74 228.14C211.08 229.71 212.11 230.46 213.61 231.48C215.25 232.57 217.16 233.73 217.36 235.37C217.43 235.64 217.36 235.98 217.16 236.26C222.91 236.26 268.93 236.26 274.69 236.26C274.69 236.19 274.69 236.12 274.69 236.05C274.69 235.1 275.37 234.28 276.19 233.46C277.08 232.64 277.62 231.75 278.37 230.87C279.19 229.84 280.15 229.02 280.28 227.79C278.78 226.77 277.35 230.11 275.37 229.64C274 229.3 274.69 227.79 275.51 226.91C277.35 224.86 278.58 222.61 279.26 220.22C279.6 219.06 279.87 217.83 280.08 216.6C280.15 216.12 280.08 213.53 281.58 214.21C281.99 214.42 282.19 214.83 282.26 215.24C282.88 217.22 283.42 219.26 284.17 221.24C284.72 222.81 284.99 225 286.36 226.29C287.11 227.04 287.99 227.59 287.93 228.61C287.93 228.68 287.93 228.75 287.86 228.82C287.79 228.95 287.58 228.95 287.45 229.02C285.88 229.43 284.79 228.54 283.76 227.79C283.63 227.73 283.49 227.59 283.29 227.52C283.08 227.45 282.88 227.45 282.74 227.59C282.4 227.86 282.67 228.61 282.74 228.95C282.94 229.98 283.63 230.93 284.45 231.75C285.74 233.12 287.52 234.21 288.54 235.71C288.75 235.98 288.95 236.32 288.88 236.67C288.81 237.35 287.93 237.69 287.18 237.69C286.08 237.76 285.47 237.14 285.13 236.46C284.86 235.98 284.65 235.51 284.04 235.3C283.9 235.23 283.69 235.23 283.56 235.3C283.49 235.37 283.49 235.37 283.49 235.44C283.42 236.26 283.63 237.08 284.04 237.89C285 238.15 292.7 240.17 293.66 240.42C293.66 240.42 293.66 240.42 293.66 240.42C294.27 238.44 296.46 237.08 298.03 235.57C298.78 234.82 299.46 234.07 299.8 233.19C299.87 232.98 300.28 232.16 300.07 231.96C299.66 231.48 298.98 232.09 298.78 232.37C298.44 232.78 298.03 233.25 297.62 233.66C297.28 234 296.93 234.28 296.53 234.48C296.05 234.69 295.5 234.76 295.02 234.62C294.41 234.41 294.07 233.87 294.07 233.32C294 232.5 294.48 231.75 295.09 231.07C295.71 230.39 296.46 229.84 297.21 229.23C297.75 228.82 298.3 228.34 298.78 227.86C299.32 227.38 301.58 224.25 299.87 223.84C299.46 223.77 299.05 223.9 298.71 224.11C298.37 224.31 298.16 224.59 297.89 224.86C297.21 225.41 296.25 225.75 295.23 225.68C294.96 225.68 294.75 225.61 294.55 225.54C294.2 225.34 294.14 225.06 294.07 224.72C294.07 223.77 294.75 222.95 295.57 222.13C296.46 221.31 297 220.42 297.75 219.54C298.57 218.51 299.53 217.69 299.66 216.47C298.16 215.44 296.73 218.79 294.75 218.31C293.39 217.97 294.07 216.47 294.89 215.58C296.73 213.53 297.96 211.28 298.64 208.89C298.98 207.73 299.25 206.5 299.46 205.27C299.53 204.8 299.46 202.2 300.96 202.88C301.37 203.09 301.58 203.5 301.64 203.91C302.26 205.89 302.8 207.93 303.55 209.91C304.1 211.48 304.37 213.67 305.74 214.96C306.49 215.71 307.38 216.26 307.31 217.28C307.31 217.35 307.31 217.42 307.24 217.49C307.17 217.63 306.97 217.63 306.83 217.69C305.26 218.1 304.17 217.22 303.14 216.47C303.01 216.4 302.87 216.26 302.67 216.19C302.46 216.12 302.26 216.12 302.12 216.26C301.78 216.53 302.05 217.28 302.12 217.63C302.33 218.65 303.01 219.6 303.83 220.42C305.12 221.79 306.9 222.88 307.92 224.38C308.13 224.65 308.33 225 308.26 225.34C308.19 226.02 307.31 226.36 306.56 226.36C305.47 226.43 304.85 225.82 304.51 225.13C304.24 224.65 304.03 224.18 303.42 223.97C303.28 223.9 303.08 223.9 302.94 223.97C302.87 224.04 302.87 224.04 302.87 224.11C302.8 225.06 303.08 226.02 303.62 226.91C304.17 227.79 305.06 228.41 306.08 229.09C306.63 229.43 307.1 229.84 307.51 230.32C307.79 230.66 307.92 231.07 307.85 231.41C307.79 231.82 307.44 232.16 306.97 232.3C306.28 232.5 305.53 232.23 305.06 231.82C304.78 231.62 303.35 229.91 302.87 230.59C302.67 230.8 303.08 231.75 303.14 232.03C303.42 232.91 303.76 233.8 304.24 234.69C305.19 236.46 306.63 238.03 308.4 239.4C309.15 239.94 310.04 240.62 309.97 241.44C309.9 242.54 308.06 243.01 306.83 242.74C305.12 242.4 305.19 241.03 303.9 240.35C303.83 240.28 303.69 240.28 303.62 240.28C303.35 240.28 303.35 240.56 303.35 240.76C303.55 241.58 303.9 242.47 304.31 243.22C305.86 243.63 318.31 246.96 319.86 247.38C320.21 247.11 320.55 246.77 320.89 246.49C321.43 246.02 323.69 242.88 321.98 242.47C321.57 242.4 321.16 242.54 320.82 242.74C320.48 242.94 320.27 243.22 320 243.49C319.32 244.04 318.36 244.38 317.34 244.31C317.07 244.31 316.86 244.24 316.66 244.17C316.32 243.97 316.25 243.7 316.18 243.35C316.18 242.4 316.86 241.58 317.68 240.76C318.57 239.94 319.11 239.05 319.86 238.17C320.68 237.14 321.64 236.32 321.78 235.1C320.27 234.07 318.84 237.42 316.86 236.94C315.5 236.6 316.18 235.1 317 234.21C318.84 232.16 320.07 229.91 320.75 227.52C321.09 226.36 321.37 225.13 321.57 223.9C321.64 223.43 321.57 220.83 323.07 221.52C323.48 221.72 323.69 222.13 323.75 222.54C324.37 224.52 324.92 226.57 325.67 228.54C326.21 230.11 326.48 232.3 327.85 233.6C328.6 234.35 329.49 234.89 329.42 235.92C329.42 235.98 329.42 236.05 329.35 236.12C329.28 236.26 329.08 236.26 328.94 236.32C327.37 236.73 326.28 235.85 325.26 235.1C325.12 235.03 324.98 234.89 324.78 234.82C324.57 234.76 324.37 234.76 324.23 234.89C323.89 235.16 324.16 235.92 324.23 236.26C324.44 237.28 325.12 238.24 325.94 239.05C327.24 240.42 329.01 241.51 330.03 243.01C330.24 243.29 330.44 243.63 330.37 243.97C330.31 244.65 329.42 244.99 328.67 244.99C327.58 245.06 326.96 244.45 326.62 243.76C326.35 243.29 326.14 242.81 325.53 242.6C325.39 242.54 325.19 242.54 325.05 242.6C324.98 242.67 324.98 242.67 324.98 242.74C324.92 243.7 325.19 244.65 325.73 245.54C326.28 246.43 327.17 247.04 328.19 247.72C328.74 248.06 329.21 248.47 329.62 248.95C329.9 249.29 330.03 249.7 329.97 250.04C330.62 250.21 333.92 251.08 339.86 252.64L375.62 252.64C386.1 249.03 391.93 247.03 393.09 246.63C393.71 246.02 394.46 245.4 395.14 244.86C395.69 244.45 396.23 243.97 396.71 243.49C397.25 243.01 399.51 239.87 397.8 239.46C397.39 239.4 396.98 239.53 396.64 239.74C396.3 239.94 396.09 240.21 395.82 240.49C395.14 241.03 394.18 241.37 393.16 241.31C392.89 241.31 392.68 241.24 392.48 241.17C392.14 240.97 392.07 240.69 392 240.35C392 239.4 392.68 238.58 393.5 237.76C394.39 236.94 394.93 236.05 395.69 235.16C396.5 234.14 397.46 233.32 397.6 232.09C396.09 231.07 394.66 234.41 392.68 233.94C391.32 233.6 392 232.09 392.82 231.21C394.66 229.16 395.89 226.91 396.57 224.52C396.91 223.36 397.19 222.13 397.39 220.9C397.46 220.42 397.39 217.83 398.89 218.51C399.3 218.72 399.51 219.13 399.58 219.54C400.19 221.52 400.74 223.56 401.49 225.54C402.03 227.11 402.31 229.3 403.67 230.59C404.42 231.34 405.31 231.89 405.24 232.91C405.24 232.98 405.24 233.05 405.17 233.12C405.1 233.25 404.9 233.25 404.76 233.32C403.19 233.73 402.1 232.84 401.08 232.09C400.94 232.03 400.8 231.89 400.6 231.82C400.39 231.75 400.19 231.75 400.05 231.89C399.71 232.16 399.98 232.91 400.05 233.25C400.26 234.28 400.94 235.23 401.76 236.05C403.06 237.42 404.83 238.51 405.85 240.01C406.06 240.28 406.26 240.62 406.19 240.97C406.13 241.65 405.24 241.99 404.49 241.99C403.4 242.06 402.78 241.44 402.44 240.76C402.17 240.28 401.96 239.81 401.35 239.6C401.21 239.53 401.01 239.53 400.87 239.6C400.8 239.67 400.8 239.67 400.8 239.74C400.74 240.69 401.01 241.65 401.55 242.54C401.76 242.88 401.96 243.08 402.24 243.35C402.82 243.24 407.52 242.31 408.11 242.19C408.11 241.44 408.52 240.69 409.13 240.08C409.74 239.4 410.49 238.85 411.25 238.24C411.79 237.83 412.34 237.35 412.81 236.87C413.36 236.39 415.61 233.25 413.91 232.84C413.5 232.78 413.09 232.91 412.75 233.12C412.41 233.32 412.2 233.6 411.93 233.87C411.25 234.41 410.29 234.76 409.27 234.69C408.99 234.69 408.79 234.62 408.58 234.55C408.24 234.35 408.17 234.07 408.11 233.73C408.11 232.78 408.79 231.96 409.61 231.14C410.49 230.32 411.04 229.43 411.79 228.54C412.61 227.52 413.57 226.7 413.7 225.47C412.2 224.45 410.77 227.79 408.79 227.32C407.42 226.98 408.11 225.47 408.92 224.59C410.77 222.54 412 220.29 412.68 217.9C413.02 216.74 413.29 215.51 413.5 214.28C413.57 213.8 413.5 211.21 415 211.89C415.41 212.1 415.61 212.51 415.68 212.92C416.3 214.9 416.84 216.94 417.59 218.92C418.14 220.49 418.41 222.68 419.78 223.97C420.53 224.72 421.41 225.27 421.35 226.29C421.35 226.36 421.35 226.43 421.28 226.5C421.21 226.63 421 226.63 420.87 226.7C419.3 227.11 418.21 226.22 417.18 225.47C417.05 225.41 416.91 225.27 416.7 225.2C416.5 225.13 416.3 225.13 416.16 225.27C415.82 225.54 416.09 226.29 416.16 226.63C416.36 227.66 417.05 228.61 417.86 229.43C419.16 230.8 420.94 231.89 421.96 233.39C422.16 233.66 422.37 234 422.3 234.35C422.23 235.03 421.35 235.37 420.59 235.37C419.5 235.44 418.89 234.82 418.55 234.14C418.27 233.66 418.07 233.19 417.46 232.98C417.32 232.91 417.11 232.91 416.98 232.98C416.91 233.05 416.91 233.05 416.91 233.12C416.84 234.07 417.11 235.03 417.66 235.92C418.21 236.8 419.09 237.35 420.05 238.03C420.95 237.72 428.16 235.27 429.06 234.96C429.33 233.94 430.15 232.98 431.04 232.23C432.67 230.8 434.72 229.16 434.31 227.25C432.61 227.38 432.13 229.57 430.42 229.5C429.13 229.5 428.65 228.2 428.92 227.32C429.53 225.34 431.72 223.97 433.29 222.47C434.04 221.72 434.72 220.97 435.06 220.08C435.13 219.88 435.54 219.06 435.34 218.85C434.93 218.38 434.24 218.99 434.04 219.26C433.7 219.67 433.29 220.15 432.88 220.56C432.54 220.9 432.2 221.17 431.79 221.38C431.31 221.58 430.76 221.65 430.29 221.52C429.67 221.31 429.33 220.76 429.33 220.22C429.26 219.4 429.74 218.65 430.35 217.97C430.97 217.28 431.72 216.74 432.47 216.12C433.02 215.71 433.56 215.24 434.04 214.76C434.58 214.28 436.84 211.14 435.13 210.73C434.72 210.66 434.31 210.8 433.97 211.01C433.63 211.21 433.42 211.48 433.15 211.76C432.47 212.3 431.51 212.64 430.49 212.58C430.22 212.58 430.01 212.51 429.81 212.44C429.47 212.23 429.4 211.96 429.33 211.62C429.33 210.66 430.01 209.85 430.83 209.03C431.72 208.21 432.26 207.32 433.02 206.43C433.83 205.41 434.79 204.59 434.93 203.36C433.42 202.34 431.99 205.68 430.01 205.21C428.65 204.86 429.33 203.36 430.15 202.48C431.99 200.43 433.22 198.18 433.9 195.79C434.24 194.63 434.52 193.4 434.72 192.17C434.79 191.69 434.72 189.1 436.22 189.78C436.63 189.99 436.84 190.4 436.91 190.81C437.52 192.78 438.07 194.83 438.82 196.81C439.36 198.38 439.64 200.56 441 201.86C441.75 202.61 442.64 203.16 442.57 204.18C442.57 204.25 442.57 204.32 442.5 204.39C442.43 204.52 442.23 204.52 442.09 204.59C440.52 205 439.43 204.11 438.41 203.36C438.27 203.29 438.13 203.16 437.93 203.09C437.72 203.02 437.52 203.02 437.38 203.16C437.04 203.43 437.31 204.18 437.38 204.52C437.59 205.55 438.27 206.5 439.09 207.32C440.39 208.69 442.16 209.78 443.18 211.28C443.39 211.55 443.59 211.89 443.53 212.23C443.46 212.92 442.57 213.26 441.82 213.26C440.73 213.33 440.11 212.71 439.77 212.03C439.5 211.55 439.29 211.07 438.68 210.87C438.54 210.8 438.34 210.8 438.2 210.87C438.13 210.94 438.13 210.94 438.13 211.01C438.07 211.96 438.34 212.92 438.88 213.8C439.43 214.69 440.32 215.31 441.34 215.99C441.89 216.33 442.36 216.74 442.77 217.22C443.05 217.56 443.18 217.97 443.12 218.31C443.05 218.72 442.71 219.06 442.23 219.2C441.55 219.4 440.8 219.13 440.32 218.72C440.04 218.51 438.61 216.81 438.13 217.49C437.93 217.69 438.34 218.65 438.41 218.92C438.68 219.81 439.02 220.7 439.5 221.58C440.45 223.36 441.89 224.93 443.66 226.29C444.41 226.84 445.3 227.52 445.23 228.34C445.16 229.43 443.32 229.91 442.09 229.64C440.39 229.3 440.45 227.93 439.16 227.25C439.09 227.18 438.95 227.18 438.88 227.18C438.61 227.18 438.61 227.45 438.61 227.66C438.88 228.82 439.43 229.98 440.11 231.07C441.63 230.55 453.75 226.4 455.26 225.88C454.72 225.61 454.51 225.13 454.44 224.65C454.38 223.84 454.85 223.09 455.47 222.4C456.08 221.72 456.83 221.17 457.58 220.56C458.13 220.15 458.68 219.67 459.15 219.2C459.7 218.72 461.95 215.58 460.25 215.17C459.84 215.1 459.43 215.24 459.08 215.44C458.74 215.65 458.54 215.92 458.27 216.19C457.58 216.74 456.63 217.08 455.6 217.01C455.33 217.01 455.13 216.94 454.92 216.87C454.58 216.67 454.51 216.4 454.44 216.06C454.44 215.1 455.13 214.28 455.95 213.46C456.83 212.64 457.38 211.76 458.13 210.87C458.95 209.85 459.9 209.03 460.04 207.8C458.54 206.77 457.11 210.12 455.13 209.64C453.76 209.3 454.44 207.8 455.26 206.91C457.11 204.86 458.33 202.61 459.02 200.22C459.36 199.06 459.63 197.83 459.84 196.61C459.9 196.13 459.84 193.54 461.34 194.22C461.75 194.42 461.95 194.83 462.02 195.24C462.63 197.22 463.18 199.27 463.93 201.25C464.48 202.82 464.75 205 466.11 206.3C466.86 207.05 467.75 207.59 467.68 208.62C467.68 208.69 467.68 208.75 467.62 208.82C467.55 208.96 467.34 208.96 467.21 209.03C465.64 209.44 464.54 208.55 463.52 207.8C463.38 207.73 463.25 207.59 463.04 207.53C462.84 207.46 462.63 207.46 462.5 207.59C462.16 207.87 462.43 208.62 462.5 208.96C462.7 209.98 463.38 210.94 464.2 211.76C465.5 213.12 467.27 214.21 468.3 215.71C468.5 215.99 468.71 216.33 468.64 216.67C468.57 217.35 467.68 217.69 466.93 217.69C465.84 217.76 465.23 217.15 464.89 216.47C464.61 215.99 464.41 215.51 463.79 215.31C463.66 215.24 463.45 215.24 463.32 215.31C463.25 215.37 463.25 215.37 463.25 215.44C463.18 216.4 463.45 217.35 464 218.24C464.54 219.13 465.43 219.74 466.46 220.42C466.93 220.76 467.41 221.11 467.75 221.52C469.21 221.02 480.83 217.03 482.29 216.53C482.49 216.33 482.77 216.19 482.97 215.99C483.52 215.58 484.06 215.1 484.54 214.62C485.09 214.15 487.34 211.01 485.63 210.6C485.22 210.53 484.81 210.66 484.47 210.87C484.13 211.07 483.93 211.35 483.65 211.62C482.97 212.17 482.02 212.51 480.99 212.44C480.72 212.44 480.51 212.37 480.31 212.3C479.97 212.1 479.9 211.82 479.83 211.48C479.83 210.53 480.51 209.71 481.33 208.89C482.22 208.07 482.77 207.18 483.52 206.3C484.34 205.27 485.29 204.45 485.43 203.23C483.93 202.2 482.49 205.55 480.51 205.07C479.15 204.73 479.83 203.23 480.65 202.34C482.49 200.29 483.72 198.04 484.4 195.65C484.75 194.49 485.02 193.26 485.22 192.03C485.29 191.56 485.22 188.96 486.72 189.65C487.13 189.85 487.34 190.26 487.41 190.67C488.02 192.65 488.57 194.7 489.32 196.67C489.86 198.24 490.14 200.43 491.5 201.72C492.25 202.48 493.14 203.02 493.07 204.04C493.07 204.11 493.07 204.18 493 204.25C492.93 204.39 492.73 204.39 492.59 204.45C491.02 204.86 489.93 203.98 488.91 203.23C488.77 203.16 488.64 203.02 488.43 202.95C488.23 202.88 488.02 202.88 487.88 203.02C487.54 203.29 487.82 204.04 487.88 204.39C488.09 205.41 488.77 206.37 489.59 207.18C490.89 208.55 492.66 209.64 493.69 211.14C493.89 211.42 494.09 211.76 494.03 212.1C494.03 212.23 493.96 212.37 493.89 212.44C494.26 212.32 497.21 211.33 497.58 211.21C498.19 210.6 498.87 210.05 499.55 209.5C500.1 209.1 500.65 208.62 501.12 208.14C501.67 207.66 503.92 204.52 502.22 204.11C501.81 204.04 501.4 204.18 501.06 204.39C500.71 204.59 500.51 204.86 500.24 205.14C499.55 205.68 498.6 206.02 497.58 205.96C497.3 205.96 497.1 205.89 496.89 205.82C496.55 205.61 496.48 205.34 496.42 205C496.42 204.04 497.1 203.23 497.92 202.41C498.8 201.59 499.35 200.7 500.1 199.81C500.92 198.79 501.87 197.97 502.01 196.74C500.51 195.72 499.08 199.06 497.1 198.59C495.73 198.24 496.42 196.74 497.23 195.86C499.08 193.81 500.31 191.56 500.99 189.17C501.33 188.01 501.6 186.78 501.81 185.55C501.87 185.07 501.81 182.48 503.31 183.16C503.72 183.37 503.92 183.78 503.99 184.19C504.6 186.16 505.15 188.21 505.9 190.19C506.45 191.76 506.72 193.94 508.08 195.24C508.84 195.99 509.72 196.54 509.65 197.56C509.65 197.63 509.65 197.7 509.59 197.77C509.52 197.9 509.31 197.9 509.18 197.97C507.61 198.38 506.52 197.49 505.49 196.74C505.36 196.67 505.22 196.54 505.01 196.47C504.81 196.4 504.6 196.4 504.47 196.54C504.13 196.81 504.4 197.56 504.47 197.9C504.67 198.93 505.36 199.88 506.17 200.7C507.47 202.07 509.25 203.16 510.27 204.66C510.47 204.93 510.68 205.27 510.61 205.61C510.54 206.3 509.65 206.64 508.9 206.64C507.81 206.71 507.2 206.09 506.86 205.41C506.58 204.93 506.38 204.45 505.76 204.25C505.63 204.18 505.42 204.18 505.29 204.25C505.22 204.32 505.22 204.32 505.22 204.39C505.15 205.34 505.42 206.3 505.97 207.18C506.17 207.46 506.38 207.73 506.65 208C508.38 207.41 522.19 202.66 523.92 202.07C524.6 201.45 525.42 200.84 526.03 200.22C526.78 199.47 527.47 198.72 527.81 197.83C527.88 197.63 528.29 196.81 528.08 196.61C527.67 196.13 526.99 196.74 526.78 197.02C526.44 197.43 526.03 197.9 525.62 198.31C525.28 198.65 524.94 198.93 524.53 199.13C524.05 199.34 523.51 199.4 523.03 199.27C522.42 199.06 522.08 198.52 522.08 197.97C522.01 197.15 522.48 196.4 523.1 195.72C523.71 195.04 524.46 194.49 525.21 193.88C525.76 193.47 526.31 192.99 526.78 192.51C527.33 192.03 529.58 188.89 527.88 188.48C527.47 188.42 527.06 188.55 526.72 188.76C526.37 188.96 526.17 189.24 525.9 189.51C525.21 190.05 524.26 190.4 523.24 190.33C522.96 190.33 522.76 190.26 522.55 190.19C522.21 189.99 522.14 189.71 522.08 189.37C522.08 188.42 522.76 187.6 523.58 186.78C524.46 185.96 525.01 185.07 525.76 184.19C526.58 183.16 527.53 182.34 527.67 181.11C526.17 180.09 524.74 183.43 522.76 182.96C521.39 182.62 522.08 181.11 522.89 180.23C524.74 178.18 525.97 175.93 526.65 173.54C526.99 172.38 527.26 171.15 527.47 169.92C527.53 169.44 527.47 166.85 528.97 167.53C529.38 167.74 529.58 168.15 529.65 168.56C530.26 170.54 530.81 172.58 531.56 174.56C532.11 176.13 532.38 178.32 533.75 179.61C534.5 180.36 535.38 180.91 535.31 181.93C535.31 182 535.31 182.07 535.25 182.14C535.18 182.27 534.97 182.27 534.84 182.34C533.27 182.75 532.18 181.87 531.15 181.11C531.02 181.05 530.88 180.91 530.67 180.84C530.47 180.77 530.26 180.77 530.13 180.91C529.79 181.18 530.06 181.93 530.13 182.27C530.33 183.3 531.02 184.25 531.83 185.07C533.13 186.44 534.91 187.53 535.93 189.03C536.13 189.3 536.34 189.65 536.27 189.99C536.2 190.67 535.31 191.01 534.56 191.01C533.47 191.08 532.86 190.46 532.52 189.78C532.24 189.3 532.04 188.83 531.42 188.62C531.29 188.55 531.08 188.55 530.95 188.62C530.88 188.69 530.88 188.69 530.88 188.76C530.81 189.71 531.08 190.67 531.63 191.56C532.18 192.44 533.06 193.06 534.09 193.74C534.63 194.08 535.11 194.49 535.52 194.97C535.79 195.31 535.93 195.72 535.86 196.06C535.79 196.47 535.45 196.81 534.97 196.95C534.29 197.15 533.54 196.88 533.06 196.47C532.79 196.26 531.36 194.56 530.88 195.24C530.67 195.45 531.08 196.4 531.15 196.67C531.36 197.49 531.7 198.38 532.18 199.13C533.77 198.59 546.49 194.22 548.08 193.67C548.08 193.67 548.08 193.67 548.08 193.67C548.08 192.72 548.76 191.9 549.58 191.08C550.47 190.26 551.01 189.37 551.76 188.48C552.58 187.46 553.54 186.64 553.67 185.41C552.17 184.39 550.74 187.73 548.76 187.26C547.39 186.92 548.08 185.41 548.9 184.53C550.74 182.48 551.97 180.23 552.65 177.84C552.99 176.68 553.26 175.45 553.47 174.22C553.54 173.74 553.47 171.15 554.97 171.83C555.38 172.04 555.58 172.45 555.65 172.86C556.27 174.84 556.81 176.88 557.56 178.86C558.11 180.43 558.38 182.62 559.75 183.91C560.5 184.66 561.38 185.21 561.32 186.23C561.32 186.3 561.32 186.37 561.25 186.44C561.18 186.57 560.97 186.57 560.84 186.64C559.27 187.05 558.18 186.16 557.15 185.41C557.02 185.35 556.88 185.21 556.68 185.14C556.47 185.07 556.27 185.07 556.13 185.21C555.79 185.48 556.06 186.23 556.13 186.57C556.33 187.6 557.02 188.55 557.84 189.37C558.04 189.58 558.31 189.78 558.52 189.99C559.3 189.72 565.58 187.59 566.37 187.32C566.78 186.98 567.19 186.64 567.66 186.3C568.21 185.89 568.75 185.41 569.23 184.94C569.78 184.46 572.03 181.32 570.32 180.91C569.92 180.84 569.51 180.98 569.16 181.18C568.82 181.39 568.62 181.66 568.35 181.93C567.66 182.48 566.71 182.82 565.68 182.75C565.41 182.75 565.21 182.68 565 182.62C564.66 182.41 564.59 182.14 564.52 181.8C564.52 180.84 565.21 180.02 566.03 179.2C566.91 178.38 567.46 177.5 568.21 176.61C569.03 175.59 569.98 174.77 570.12 173.54C568.62 172.52 567.19 175.86 565.21 175.38C563.84 175.04 564.52 173.54 565.34 172.65C567.19 170.6 568.41 168.35 569.1 165.96C569.44 164.8 569.71 163.58 569.92 162.35C569.98 161.87 569.92 159.28 571.42 159.96C571.83 160.16 572.03 160.57 572.1 160.98C572.71 162.96 573.26 165.01 574.01 166.99C574.56 168.56 574.83 170.74 576.19 172.04C576.94 172.79 577.83 173.33 577.76 174.36C577.76 174.43 577.76 174.49 577.69 174.56C577.63 174.7 577.42 174.7 577.29 174.77C575.72 175.18 574.62 174.29 573.6 173.54C573.46 173.4 573.33 173.33 573.12 173.27C572.92 173.2 572.71 173.2 572.58 173.33C572.24 173.61 572.51 174.36 572.58 174.7C572.78 175.72 573.46 176.68 574.28 177.5C575.58 178.86 577.35 179.95 578.38 181.46C578.58 181.73 578.79 182.07 578.72 182.41C578.65 183.09 577.76 183.43 577.01 183.43C575.92 183.5 575.31 182.89 574.97 182.21C574.69 181.73 574.49 181.25 573.87 181.05C573.74 180.98 573.53 180.98 573.4 181.05C573.33 181.11 573.33 181.11 573.33 181.18C573.26 182.14 573.53 183.09 574.08 183.98C574.21 184.19 574.28 184.32 574.42 184.46C575.51 184.08 584.25 181.08 585.34 180.71C585.41 179.48 586.43 178.25 587.39 177.36C589.02 175.93 591.07 174.29 590.66 172.38C588.96 172.52 588.48 174.7 586.77 174.63C585.47 174.63 585 173.33 585.27 172.45C585.88 170.47 588.07 169.1 589.64 167.6C590.39 166.85 591.07 166.1 591.41 165.21C591.48 165.01 591.89 164.19 591.69 163.98C591.28 163.51 590.59 164.12 590.39 164.39C590.05 164.8 589.64 165.28 589.23 165.69C588.89 166.03 588.55 166.31 588.14 166.51C587.66 166.71 587.11 166.78 586.64 166.65C586.02 166.44 585.68 165.9 585.68 165.35C585.61 164.53 586.09 163.78 586.7 163.1C587.32 162.42 588.07 161.87 588.82 161.26C589.36 160.85 589.91 160.37 590.39 159.89C590.93 159.41 593.19 156.27 591.48 155.86C591.07 155.8 590.66 155.93 590.32 156.14C589.98 156.34 589.77 156.61 589.5 156.89C588.82 157.43 587.86 157.77 586.84 157.71C586.57 157.71 586.36 157.64 586.16 157.57C585.82 157.37 585.75 157.09 585.68 156.75C585.68 155.8 586.36 154.98 587.18 154.16C588.07 153.34 588.61 152.45 589.36 151.56C590.18 150.54 591.14 149.72 591.28 148.49C589.77 147.47 588.34 150.81 586.36 150.34C585 149.99 585.68 148.49 586.5 147.61C588.34 145.56 589.57 143.31 590.25 140.92C590.59 139.76 590.87 138.53 591.07 137.3C591.14 136.82 591.07 134.23 592.57 134.91C592.98 135.12 593.19 135.53 593.25 135.94C593.87 137.92 594.42 139.96 595.17 141.94C595.71 143.51 595.98 145.7 597.35 146.99C598.1 147.74 598.99 148.29 598.92 149.31C598.92 149.38 598.92 149.45 598.85 149.52C598.78 149.65 598.58 149.65 598.44 149.72C596.87 150.13 595.78 149.24 594.76 148.49C594.62 148.43 594.48 148.29 594.28 148.22C594.07 148.15 593.87 148.15 593.73 148.29C593.39 148.56 593.66 149.31 593.73 149.65C593.94 150.68 594.62 151.63 595.44 152.45C596.74 153.82 598.51 154.91 599.53 156.41C599.74 156.68 599.94 157.02 599.87 157.37C599.81 158.05 598.92 158.39 598.17 158.39C597.08 158.46 596.46 157.84 596.12 157.16C595.85 156.68 595.64 156.21 595.03 156C594.89 155.93 594.69 155.93 594.55 156C594.48 156.07 594.48 156.07 594.48 156.14C594.42 157.09 594.69 158.05 595.23 158.93C595.78 159.82 596.67 160.44 597.69 161.12C598.24 161.46 598.71 161.87 599.12 162.35C599.4 162.69 599.53 163.1 599.47 163.44C599.4 163.85 599.06 164.19 598.58 164.33C597.9 164.53 597.14 164.26 596.67 163.85C596.39 163.64 594.96 161.94 594.48 162.62C594.28 162.82 594.69 163.78 594.76 164.05C595.03 164.94 595.37 165.83 595.85 166.71C596.8 168.49 598.24 170.06 600.01 171.42C600.76 171.97 601.65 172.65 601.58 173.47C601.51 174.56 599.67 175.04 598.44 174.77C596.74 174.43 596.8 173.06 595.51 172.38C595.44 172.31 595.3 172.31 595.23 172.31C594.96 172.31 594.96 172.58 594.96 172.79C595.23 174.15 595.92 175.45 596.8 176.68C597.97 176.28 607.31 173.05 608.47 172.65C608.95 172.24 609.5 171.83 610.04 171.36C610.59 170.95 611.14 170.47 611.61 169.99C612.16 169.51 614.41 166.37 612.7 165.96C612.3 165.9 611.89 166.03 611.54 166.24C611.2 166.44 611 166.71 610.73 166.99C610.04 167.53 609.09 167.87 608.06 167.81C607.79 167.81 607.59 167.74 607.38 167.67C607.04 167.47 606.97 167.19 606.9 166.85C606.9 165.9 607.59 165.08 608.41 164.26C609.29 163.44 609.84 162.55 610.59 161.66C611.41 160.64 612.36 159.82 612.5 158.59C611 157.57 609.57 160.91 607.59 160.44C606.22 160.1 606.9 158.59 607.72 157.71C609.57 155.66 610.79 153.41 611.48 151.02C611.82 149.86 612.09 148.63 612.3 147.4C612.36 146.92 612.3 144.33 613.8 145.01C614.21 145.22 614.41 145.63 614.48 146.04C615.09 148.02 615.64 150.06 616.39 152.04C616.94 153.61 617.21 155.8 618.57 157.09C619.32 157.84 620.21 158.39 620.14 159.41C620.14 159.48 620.14 159.55 620.08 159.62C620.01 159.75 619.8 159.75 619.67 159.82C618.1 160.23 617 159.34 615.98 158.59C615.84 158.53 615.71 158.39 615.5 158.32C615.3 158.25 615.09 158.25 614.96 158.39C614.62 158.66 614.89 159.41 614.96 159.75C615.16 160.78 615.84 161.73 616.66 162.55C617.96 163.92 619.73 165.01 620.76 166.51C620.96 166.78 621.17 167.12 621.1 167.47C621.03 168.15 620.14 168.49 619.39 168.49C618.3 168.56 617.69 167.94 617.35 167.26C617.07 166.78 616.87 166.31 616.25 166.1C616.12 166.03 615.91 166.03 615.78 166.1C615.71 166.17 615.71 166.17 615.71 166.24C615.64 167.19 615.91 168.15 616.46 169.04C616.59 169.24 616.73 169.44 616.94 169.65C618.27 169.19 628.97 165.53 630.31 165.08C630.86 164.6 631.47 164.12 632.02 163.58C632.77 162.82 633.45 162.07 633.79 161.19C633.86 160.98 634.27 160.16 634.07 159.96C633.66 159.48 632.97 160.1 632.77 160.37C632.43 160.78 632.02 161.26 631.61 161.66C631.27 162.01 630.93 162.28 630.52 162.48C630.04 162.69 629.49 162.76 629.02 162.62C628.4 162.42 628.06 161.87 628.06 161.32C627.99 160.5 628.47 159.75 629.08 159.07C629.7 158.39 630.45 157.84 631.2 157.23C631.75 156.82 632.29 156.34 632.77 155.86C633.31 155.39 635.57 152.25 633.86 151.84C633.45 151.77 633.04 151.91 632.7 152.11C632.36 152.32 632.15 152.59 631.88 152.86C631.2 153.41 630.24 153.75 629.22 153.68C628.95 153.68 628.74 153.61 628.54 153.54C628.2 153.34 628.13 153.07 628.06 152.72C628.06 151.77 628.74 150.95 629.56 150.13C630.45 149.31 630.99 148.43 631.75 147.54C632.56 146.51 633.52 145.7 633.66 144.47C632.15 143.44 630.72 146.79 628.74 146.31C627.38 145.97 628.06 144.47 628.88 143.58C630.72 141.53 631.95 139.28 632.63 136.89C632.97 135.73 633.25 134.5 633.45 133.27C633.52 132.8 633.45 130.2 634.95 130.89C635.36 131.09 635.57 131.5 635.64 131.91C636.25 133.89 636.8 135.94 637.55 137.92C638.09 139.48 638.36 141.67 639.73 142.97C640.48 143.72 641.37 144.26 641.3 145.29C641.3 145.35 641.3 145.42 641.23 145.49C641.16 145.63 640.96 145.63 640.82 145.7C639.25 146.1 638.16 145.22 637.14 144.47C637 144.4 636.86 144.26 636.66 144.19C636.45 144.13 636.25 144.13 636.11 144.26C635.77 144.54 636.04 145.29 636.11 145.63C636.32 146.65 637 147.61 637.82 148.43C639.12 149.79 640.89 150.88 641.91 152.38C642.12 152.66 642.32 153 642.25 153.34C642.19 154.02 641.3 154.36 640.55 154.36C639.46 154.43 638.84 153.82 638.5 153.13C638.23 152.66 638.02 152.18 637.41 151.97C637.27 151.91 637.07 151.91 636.93 151.97C636.86 152.04 636.86 152.04 636.86 152.11C636.8 153.07 637.07 154.02 637.61 154.91C638.16 155.8 639.05 156.41 640.07 157.09C640.62 157.43 641.09 157.84 641.5 158.32C641.78 158.66 641.91 159.07 641.85 159.41C641.78 159.82 641.44 160.16 640.96 160.3C640.28 160.5 639.53 160.23 639.05 159.82C638.77 159.62 637.34 157.91 636.86 158.59C636.66 158.8 637.07 159.75 637.14 160.03C637.34 160.78 637.68 161.6 638.02 162.28C639.28 161.85 649.33 158.41 650.58 157.98C651.13 157.43 651.74 156.96 652.36 156.48C652.9 156.07 653.45 155.59 653.92 155.11C654.47 154.64 656.72 151.5 655.02 151.09C654.61 151.02 654.2 151.15 653.86 151.36C653.52 151.56 653.31 151.84 653.04 152.11C652.36 152.66 651.4 153 650.38 152.93C650.1 152.93 649.9 152.86 649.69 152.79C649.35 152.59 649.28 152.32 649.22 151.97C649.22 151.02 649.9 150.2 650.72 149.38C651.6 148.56 652.15 147.67 652.9 146.79C653.72 145.76 654.68 144.94 654.81 143.72C653.31 142.69 651.88 146.04 649.9 145.56C648.53 145.22 649.22 143.72 650.03 142.83C651.88 140.78 653.11 138.53 653.79 136.14C654.13 134.98 654.4 133.75 654.61 132.52C654.68 132.05 654.61 129.45 656.11 130.14C656.52 130.34 656.72 130.75 656.79 131.16C657.41 133.14 657.95 135.19 658.7 137.16C659.25 138.73 659.52 140.92 660.89 142.21C661.64 142.97 662.52 143.51 662.46 144.54C662.46 144.6 662.46 144.67 662.39 144.74C662.32 144.88 662.11 144.88 661.98 144.94C660.41 145.35 659.32 144.47 658.29 143.72C658.16 143.65 658.02 143.51 657.81 143.44C657.61 143.37 657.41 143.37 657.27 143.51C656.93 143.78 657.2 144.54 657.27 144.88C657.47 145.9 658.16 146.86 658.97 147.67C660.27 149.04 662.05 150.13 663.07 151.63C663.27 151.91 663.48 152.25 663.41 152.59C663.34 153.27 662.46 153.61 661.7 153.61C660.61 153.68 660 153.07 659.66 152.38C659.38 151.91 659.18 151.43 658.57 151.22C658.43 151.15 658.22 151.15 658.09 151.22C658.02 151.29 658.02 151.29 658.02 151.36C657.95 152.32 658.22 153.27 658.77 154.16C658.91 154.43 659.11 154.64 659.32 154.84C660.76 154.34 672.34 150.36 673.78 149.86C673.85 149.79 673.92 149.65 673.99 149.59C674.81 148.56 675.76 147.74 675.9 146.51C674.4 145.49 672.97 148.83 670.99 148.36C669.62 148.02 670.3 146.51 671.12 145.63C672.97 143.58 674.19 141.33 674.88 138.94C675.22 137.78 675.49 136.55 675.69 135.32C675.76 134.84 675.69 132.25 677.2 132.93C677.61 133.14 677.81 133.55 677.88 133.96C678.49 135.94 679.04 137.98 679.79 139.96C680.34 141.53 680.61 143.72 681.97 145.01C682.45 145.49 683.07 145.9 683.34 146.45C684.64 146.13 695.07 143.56 696.37 143.24C697.06 142.42 697.47 141.53 697.26 140.58C695.55 140.71 695.08 142.9 693.37 142.83C692.07 142.83 691.6 141.53 691.87 140.65C692.48 138.67 694.67 137.3 696.24 135.8C696.99 135.05 697.67 134.3 698.01 133.41C698.08 133.21 698.49 132.39 698.28 132.18C697.87 131.71 697.19 132.32 696.99 132.59C696.65 133 696.24 133.48 695.83 133.89C695.49 134.23 695.14 134.5 694.74 134.71C694.26 134.91 693.71 134.98 693.23 134.84C692.62 134.64 692.28 134.09 692.28 133.55C692.21 132.73 692.69 131.98 693.3 131.3C693.92 130.61 694.67 130.07 695.42 129.45C695.96 129.04 696.51 128.57 696.99 128.09C697.53 127.61 699.79 124.47 698.08 124.06C697.67 123.99 697.26 124.13 696.92 124.33C696.58 124.54 696.37 124.81 696.1 125.09C695.42 125.63 694.46 125.97 693.44 125.9C693.17 125.9 692.96 125.84 692.76 125.77C692.42 125.56 692.35 125.29 692.28 124.95C692.28 123.99 692.96 123.17 693.78 122.36C694.67 121.54 695.21 120.65 695.96 119.76C696.78 118.74 697.74 117.92 697.87 116.69C696.37 115.67 694.94 119.01 692.96 118.53C691.6 118.19 692.28 116.69 693.1 115.8C694.94 113.76 696.17 111.5 696.85 109.12C697.19 107.96 697.47 106.73 697.67 105.5C697.74 105.02 697.67 102.43 699.17 103.11C699.58 103.32 699.79 103.72 699.85 104.13C700.47 106.11 701.01 108.16 701.76 110.14C702.31 111.71 702.58 113.89 703.95 115.19C704.7 115.94 705.59 116.49 705.52 117.51C705.52 117.58 705.52 117.65 705.45 117.71C705.38 117.85 705.18 117.85 705.04 117.92C703.47 118.33 702.38 117.44 701.36 116.69C701.22 116.62 701.08 116.49 700.88 116.42C700.67 116.35 700.47 116.35 700.33 116.49C699.99 116.76 700.26 117.51 700.33 117.85C700.54 118.87 701.22 119.83 702.04 120.65C703.33 122.01 705.11 123.11 706.13 124.61C706.34 124.88 706.54 125.22 706.47 125.56C706.41 126.25 705.52 126.59 704.77 126.59C703.68 126.65 703.06 126.04 702.72 125.36C702.45 124.88 702.24 124.4 701.63 124.2C701.49 124.13 701.29 124.13 701.15 124.2C701.08 124.27 701.08 124.27 701.08 124.33C701.01 125.29 701.29 126.25 701.83 127.13C702.38 128.02 703.27 128.63 704.29 129.32C704.84 129.66 705.31 130.07 705.72 130.54C706 130.89 706.13 131.3 706.06 131.64C706 132.05 705.65 132.39 705.18 132.52C704.49 132.73 703.74 132.46 703.27 132.05C702.99 131.84 701.56 130.14 701.08 130.82C700.88 131.02 701.29 131.98 701.36 132.25C701.63 133.14 701.97 134.03 702.45 134.91C703.4 136.69 704.84 138.26 706.61 139.62C706.61 139.62 706.61 139.62 706.68 139.69C707.46 139.42 713.74 137.29 714.53 137.03C715.14 136.35 715.89 135.8 716.64 135.19C717.19 134.78 717.73 134.3 718.21 133.82C718.76 133.34 721.01 130.2 719.3 129.79C718.89 129.73 718.48 129.86 718.14 130.07C717.8 130.27 717.6 130.54 717.32 130.82C716.64 131.36 715.69 131.71 714.66 131.64C714.39 131.64 714.19 131.57 713.98 131.5C713.64 131.3 713.57 131.02 713.5 130.68C713.5 129.73 714.19 128.91 715 128.09C715.89 127.27 716.44 126.38 717.19 125.49C718.01 124.47 718.96 123.65 719.1 122.42C717.6 121.4 716.16 124.74 714.19 124.27C712.82 123.93 713.5 122.42 714.32 121.54C716.16 119.49 717.39 117.24 718.08 114.85C718.42 113.69 718.69 112.46 718.89 111.23C718.96 110.75 718.89 108.16 720.4 108.84C720.81 109.05 721.01 109.46 721.08 109.87C721.69 111.85 722.24 113.89 722.99 115.87C723.53 117.44 723.81 119.63 725.17 120.92C725.92 121.67 726.81 122.22 726.74 123.24C726.74 123.31 726.74 123.38 726.67 123.45C726.61 123.58 726.4 123.58 726.26 123.65C724.69 124.06 723.6 123.17 722.58 122.42C722.44 122.36 722.31 122.22 722.1 122.15C721.9 122.08 721.69 122.08 721.56 122.22C721.21 122.49 721.49 123.24 721.56 123.58C721.76 124.61 722.44 125.56 723.26 126.38C724.56 127.75 726.33 128.84 727.36 130.34C727.56 130.61 727.77 130.95 727.7 131.3C727.63 131.98 726.74 132.32 725.99 132.32C724.9 132.39 724.29 131.77 723.94 131.09C723.67 130.61 723.47 130.14 722.85 129.93C722.72 129.86 722.51 129.86 722.37 129.93C722.31 130 722.31 130 722.31 130.07C722.24 131.02 722.51 131.98 723.06 132.87C723.26 133.21 723.53 133.48 723.81 133.68C724.55 133.44 728.28 132.21 735 130L735 1050L0 1050L0 256.53L0 253.32L0 182.21L9.83 182.21C9.83 182.21 9.83 182.21 9.83 182.21ZM459.22 223.84C458.88 224.25 458.54 224.65 458.2 225C458.42 224.92 460.16 224.32 460.38 224.25C460.52 223.9 460.65 223.56 460.52 223.43C460.11 222.95 459.43 223.56 459.22 223.84ZM463.52 223.15C463.66 223.11 464.75 222.72 464.89 222.68C464.34 222.2 463.66 221.72 463.38 222.13C463.25 222.27 463.38 222.74 463.52 223.15ZM489.39 210.94C489.25 210.87 489.04 210.87 488.91 210.94C488.84 211.01 488.84 211.01 488.84 211.07C488.77 212.03 489.04 212.98 489.59 213.87C489.66 213.94 489.73 214.01 489.8 214.15C490.03 214.06 491.94 213.41 492.18 213.33C491.3 213.26 490.82 212.71 490.48 212.1C490.2 211.62 490 211.14 489.39 210.94ZM679.65 147.26C679.45 147.2 679.24 147.2 679.11 147.33C678.77 147.61 679.04 148.36 679.11 148.7C679.11 148.83 679.18 148.97 679.24 149.18C679.46 149.1 681.15 148.5 681.36 148.43C680.95 148.15 680.54 147.81 680.13 147.54C679.99 147.47 679.86 147.33 679.65 147.26ZM701.83 140.58C701.56 140.58 701.56 140.85 701.56 141.05C701.56 141.19 701.63 141.33 701.7 141.46C701.8 141.43 702.62 141.16 702.72 141.12C702.52 140.92 702.38 140.78 702.11 140.65C702.04 140.58 701.9 140.58 701.83 140.58ZM14.47 181.59C14.19 181.8 13.99 182 13.79 182.21C14.03 182.21 16 182.21 16.24 182.21C16.24 181.8 16.11 181.46 15.63 181.32C15.22 181.25 14.81 181.39 14.47 181.59ZM18.77 181.46C18.7 181.52 18.7 181.52 18.7 181.59C18.7 181.8 18.7 182 18.7 182.14C18.83 182.14 19.87 182.14 20 182.14C19.86 181.93 19.59 181.66 19.25 181.46C19.11 181.39 18.9 181.39 18.77 181.46ZM204.87 236.8C205.04 236.8 205.13 236.8 205.14 236.8C205.35 236.39 205.49 235.92 205.62 235.44C205.14 235.71 204.67 235.98 204.19 236.26C204.28 236.33 204.51 236.51 204.87 236.8ZM209.85 234.41C209.92 235.3 210.74 236.12 211.7 236.73C211.96 236.73 214.09 236.73 214.36 236.73C213.95 236.53 213.54 236.19 213.27 235.85C212.52 234.89 211.01 233.8 209.85 234.41ZM279.05 235.98C278.71 236.19 278.51 236.46 278.24 236.73C278.17 236.8 278.03 236.87 277.96 236.94C278.22 237.01 280.3 237.55 280.56 237.62C280.9 236.73 281.03 235.92 280.21 235.71C279.81 235.64 279.4 235.78 279.05 235.98ZM297 241.99C297.17 242.04 298.54 242.42 298.71 242.47C298.91 241.92 298.98 241.44 298.85 240.9C298.03 240.97 297.55 241.44 297 241.99Z" id="cHDH1XQm8"></path></defs><g><g><g><use xlink:href="#cHDH1XQm8" opacity="1" fill="#324699" fill-opacity="1"></use><g><use xlink:href="#cHDH1XQm8" opacity="1" fill-opacity="0" stroke="#000000" stroke-width="1" stroke-opacity="0"></use></g></g></g></g></svg>