<?xml version="1.0" encoding="UTF-8" standalone="no"?>
<!DOCTYPE svg PUBLIC "-//W3C//DTD SVG 1.1//EN" "http://www.w3.org/Graphics/SVG/1.1/DTD/svg11.dtd">
<svg version="1.1" xmlns="http://www.w3.org/2000/svg" xmlns:xlink="http://www.w3.org/1999/xlink" preserveAspectRatio="xMidYMid meet" viewBox="0 0 735 1050" width="735" height="1050"><defs><path d="M669.76 257.57C670.99 256 668.73 254.29 667.03 253C664.91 251.36 663.34 249.31 662.52 247.13C663.48 248.08 664.64 248.9 665.94 249.58C666.82 250.06 667.85 249.99 668.19 249.11C668.32 248.7 668.32 248.36 668.26 247.95C668.12 247.13 667.92 246.24 667.51 245.49C666.69 244.12 665.19 243.17 663.89 242.01C662.59 240.85 661.57 239.42 661.98 237.98C662.05 237.78 662.18 237.51 662.46 237.44C662.93 237.3 663.41 237.57 663.68 237.85C664.23 238.53 664.23 239.07 665.46 238.8C666.28 238.6 666.89 237.85 666.82 237.23C666.82 236.69 666.41 236.21 666.07 235.8C664.23 233.41 660.54 231.29 661.16 228.22C661.23 228.02 661.3 227.75 661.5 227.61C662.05 227.27 662.86 227.75 663.27 228.16C663.68 228.63 664.3 229.18 664.98 228.97C665.66 228.77 665.66 228.09 665.46 227.61C664.64 225.29 662.73 223.31 661.43 221.19C661.09 220.65 660.82 220.03 660.89 219.42C660.89 219.28 660.95 219.22 661.02 219.08C661.23 218.87 661.77 218.87 662.05 219.08C662.66 219.49 662.73 220.38 663.82 220.44C664.84 220.51 665.59 219.69 665.53 218.87C665.46 218.12 664.78 217.44 664.23 216.83C660.2 212.12 660.27 205.84 657.81 200.65C657.75 200.45 657.61 200.24 657.41 200.11C656.93 199.83 656.25 200.11 656.04 200.52C655.84 200.93 655.9 201.34 655.97 201.74C656.52 205.29 655.63 208.91 654.74 212.46C654.4 213.82 654.06 215.12 653.45 216.42C652.63 218.06 651.4 219.62 650.51 221.26C650.03 222.08 649.97 223.31 651.06 223.58C652.49 223.92 653.52 222.22 655.02 222.29C657.47 222.35 655.56 224.81 655.08 225.49C653.99 227.13 652.22 228.63 652.15 230.54C652.15 230.82 652.15 231.09 652.36 231.29C653.65 232.8 655.49 230.41 656.04 229.79C656.31 229.52 656.86 229.32 657.2 229.52C657.54 229.73 657.54 230.07 657.54 230.41C657 234.16 651.74 236.48 650.38 240.1C650.17 240.58 650.1 241.05 650.38 241.46C650.99 242.42 653.04 242.15 654.13 241.4C654.88 240.85 655.29 240.17 656.04 239.62C656.79 239.07 658.16 238.8 657.81 240.03C657.68 240.44 657.27 240.78 656.86 241.12C655.7 242.08 654.61 242.96 653.38 243.85C652.76 244.26 652.08 244.74 651.54 245.22C650.92 245.83 650.58 246.65 650.24 247.4C649.97 248.08 649.69 248.9 650.44 249.38C650.92 249.65 651.54 249.65 652.08 249.52C652.63 249.31 653.04 249.04 653.45 248.7C654.06 248.15 654.61 247.54 655.08 246.92C655.36 246.79 655.77 246.92 655.97 247.13C656.11 247.33 656.11 247.61 656.04 247.88C655.63 249.99 654.27 250.95 652.22 252.25C650.03 253.68 647.51 255.18 647.24 257.36C647.17 257.77 647.24 258.18 647.44 258.52C646.08 258.52 639.25 258.52 626.97 258.52C618.04 262.33 613.08 264.45 612.09 264.87C611.54 264.39 610.93 263.85 610.32 263.44C608.2 261.8 606.63 259.75 605.81 257.57C606.77 258.52 607.93 259.34 609.22 260.03C610.11 260.5 611.14 260.44 611.48 259.55C611.61 259.14 611.61 258.8 611.54 258.39C611.41 257.57 611.2 256.68 610.79 255.93C609.97 254.57 608.47 253.61 607.18 252.45C605.88 251.36 604.86 249.86 605.27 248.42C605.33 248.22 605.47 247.95 605.74 247.88C606.22 247.74 606.7 248.01 606.97 248.29C607.52 248.97 607.52 249.52 608.75 249.24C609.57 249.04 610.18 248.29 610.11 247.67C610.11 247.13 609.7 246.65 609.36 246.24C607.52 243.85 603.83 241.74 604.45 238.67C604.52 238.46 604.58 238.19 604.79 238.05C605.33 237.71 606.15 238.19 606.56 238.6C606.97 239.07 607.59 239.62 608.27 239.42C608.95 239.21 608.95 238.53 608.75 238.05C607.93 235.73 606.02 233.75 604.72 231.64C604.38 231.09 604.11 230.48 604.17 229.86C604.17 229.73 604.24 229.66 604.31 229.52C604.52 229.32 605.06 229.32 605.33 229.52C605.95 229.93 606.02 230.82 607.11 230.89C608.13 230.95 608.88 230.13 608.81 229.32C608.75 228.56 608.06 227.88 607.52 227.27C603.49 222.56 603.56 216.28 601.1 211.09C601.03 210.89 600.9 210.68 600.69 210.55C600.22 210.28 599.53 210.55 599.33 210.96C599.12 211.37 599.19 211.78 599.26 212.19C599.81 215.73 598.92 219.35 598.03 222.9C597.69 224.27 597.35 225.56 596.74 226.86C595.92 228.5 594.69 230.07 593.8 231.7C593.32 232.52 593.25 233.75 594.35 234.02C595.78 234.37 596.8 232.66 598.31 232.73C600.76 232.8 598.85 235.25 598.37 235.94C597.28 237.57 595.51 239.07 595.44 240.99C595.44 241.26 595.44 241.53 595.64 241.74C596.94 243.24 598.78 240.85 599.33 240.23C599.6 239.96 600.15 239.76 600.49 239.96C600.83 240.17 600.83 240.51 600.83 240.85C600.28 244.6 595.03 246.92 593.66 250.54C593.46 251.02 593.39 251.5 593.66 251.9C594.28 252.86 596.33 252.59 597.42 251.84C598.17 251.29 598.58 250.61 599.33 250.06C600.08 249.52 601.44 249.24 601.1 250.47C600.97 250.88 600.56 251.22 600.15 251.56C598.99 252.52 597.9 253.41 596.67 254.29C596.05 254.7 595.37 255.18 594.82 255.66C594.21 256.27 593.87 257.09 593.53 257.84C593.25 258.52 592.98 259.34 593.73 259.82C594.21 260.09 594.82 260.09 595.37 259.96C595.92 259.75 596.33 259.48 596.74 259.14C597.35 258.59 597.9 257.98 598.37 257.36C598.65 257.23 599.06 257.36 599.26 257.57C599.4 257.77 599.4 258.05 599.33 258.32C598.92 260.44 597.55 261.39 595.51 262.69C593.32 264.12 590.8 265.62 590.53 267.81C590.46 268.28 590.53 268.83 591 269.17C592.3 270.26 594.55 268.97 595.58 267.74C596.6 266.51 598.51 265.01 600.08 265.9C599.94 267.6 597.76 269.03 595.92 269.85C594.01 270.74 592.71 271.63 592.16 273.2C591.47 273.49 588.01 274.97 581.79 277.63C550.87 277.63 533.7 277.63 530.26 277.63C530.06 277.43 529.79 277.22 529.58 277.02C529.04 276.54 526.78 273.4 528.49 272.99C528.9 272.92 529.31 273.06 529.65 273.27C529.99 273.47 530.2 273.74 530.47 274.02C531.15 274.56 532.11 274.9 533.13 274.84C533.4 274.84 533.61 274.77 533.81 274.7C534.15 274.49 534.22 274.22 534.29 273.88C534.29 272.92 533.61 272.11 532.79 271.29C531.9 270.47 531.36 269.58 530.61 268.69C529.79 267.67 528.83 266.85 528.69 265.62C530.2 264.6 531.63 267.94 533.61 267.46C534.97 267.12 534.29 265.62 533.47 264.73C531.63 262.69 530.4 260.44 529.72 258.05C529.38 256.89 529.1 255.66 528.9 254.43C528.83 253.95 528.9 251.36 527.4 252.04C526.99 252.25 526.78 252.66 526.72 253.06C526.1 255.04 525.56 257.09 524.81 259.07C524.26 260.64 523.99 262.82 522.62 264.12C521.87 264.87 520.98 265.42 521.05 266.44C521.05 266.51 521.05 266.58 521.12 266.65C521.19 266.78 521.39 266.78 521.53 266.85C523.1 267.26 524.19 266.37 525.21 265.62C525.35 265.55 525.49 265.42 525.69 265.35C525.9 265.28 526.1 265.28 526.24 265.42C526.58 265.69 526.31 266.44 526.24 266.78C526.03 267.81 525.35 268.76 524.53 269.58C523.24 270.95 521.46 272.04 520.44 273.54C520.23 273.81 520.03 274.15 520.1 274.49C520.16 275.18 521.05 275.52 521.8 275.52C522.89 275.59 523.51 274.97 523.85 274.29C524.12 273.81 524.33 273.33 524.94 273.13C525.08 273.06 525.28 273.06 525.42 273.13C525.49 273.2 525.49 273.2 525.49 273.27C525.56 274.22 525.28 275.18 524.74 276.06C524.4 276.68 523.85 277.09 523.24 277.56C521.5 277.56 507.63 277.56 505.9 277.56C505.49 276.88 505.22 276.13 505.08 275.38C506.17 276.06 507.27 276.75 508.63 277.02C510 277.29 511.63 277.02 512.38 276.13C513.61 274.56 511.36 272.86 509.65 271.56C507.54 269.92 505.97 267.87 505.15 265.69C506.11 266.65 507.27 267.46 508.56 268.15C509.45 268.62 510.47 268.56 510.81 267.67C510.95 267.26 510.95 266.92 510.88 266.51C510.75 265.69 510.54 264.8 510.13 264.05C509.31 262.69 507.81 261.73 506.52 260.57C505.22 259.48 504.19 257.98 504.6 256.55C504.67 256.34 504.81 256.07 505.08 256C505.56 255.86 506.04 256.14 506.31 256.41C506.86 257.09 506.86 257.64 508.08 257.36C508.9 257.16 509.52 256.41 509.45 255.79C509.45 255.25 509.04 254.77 508.7 254.36C506.86 251.97 503.17 249.86 503.79 246.79C503.85 246.58 503.92 246.31 504.13 246.17C504.67 245.83 505.49 246.31 505.9 246.72C506.31 247.13 506.92 247.74 507.61 247.54C508.29 247.33 508.29 246.65 508.08 246.17C507.27 243.85 505.36 241.87 504.06 239.76C503.72 239.21 503.44 238.6 503.51 237.98C503.51 237.85 503.58 237.78 503.65 237.64C503.85 237.44 504.4 237.44 504.67 237.64C505.29 238.05 505.36 238.94 506.45 239.01C507.47 239.07 508.22 238.26 508.15 237.44C508.08 236.69 507.4 236 506.86 235.39C502.83 230.68 502.9 224.4 500.44 219.22C500.37 219.01 500.24 218.81 500.03 218.67C499.55 218.4 498.87 218.67 498.67 219.08C498.46 219.49 498.53 219.9 498.6 220.31C499.14 223.86 498.26 227.47 497.37 231.02C497.03 232.39 496.69 233.68 496.07 234.98C495.25 236.62 494.03 238.19 493.14 239.83C492.66 240.64 492.59 241.87 493.69 242.15C495.12 242.49 496.14 240.78 497.64 240.85C500.1 240.92 498.19 243.37 497.71 244.06C496.62 245.69 494.85 247.2 494.78 249.11C494.78 249.38 494.78 249.65 494.98 249.86C496.28 251.36 498.12 248.97 498.67 248.36C498.94 248.08 499.49 247.88 499.83 248.08C500.17 248.29 500.17 248.63 500.17 248.97C499.62 252.72 494.37 255.04 493 258.66C492.8 259.14 492.73 259.62 493 260.03C493.62 260.98 495.66 260.71 496.76 259.96C497.51 259.41 497.92 258.73 498.67 258.18C499.42 257.64 500.78 257.36 500.44 258.59C500.31 259 499.9 259.34 499.49 259.68C498.33 260.64 497.23 261.53 496.01 262.41C495.39 262.82 494.71 263.3 494.16 263.78C493.55 264.39 493.21 265.21 492.87 265.96C492.59 266.65 492.32 267.46 493.07 267.94C493.55 268.22 494.16 268.22 494.71 268.08C495.25 267.87 495.66 267.6 496.07 267.26C496.69 266.71 497.23 266.1 497.71 265.49C497.98 265.35 498.39 265.49 498.6 265.69C498.74 265.9 498.74 266.17 498.67 266.44C498.26 268.56 496.89 269.51 494.85 270.81C492.66 272.24 490.14 273.74 489.86 275.93C489.8 276.4 489.86 276.95 490.34 277.29C490.41 277.36 490.48 277.36 490.55 277.43C489.82 277.43 484.04 277.43 483.31 277.43C482.49 276.68 481.61 276 480.86 275.31C480.1 274.56 479.42 273.81 479.08 272.92C479.01 272.72 478.6 271.9 478.81 271.7C479.22 271.22 479.9 271.83 480.1 272.11C480.45 272.51 480.86 272.99 481.26 273.4C481.61 273.74 481.95 274.02 482.36 274.22C482.83 274.43 483.38 274.49 483.86 274.36C484.47 274.15 484.81 273.61 484.81 273.06C484.88 272.24 484.4 271.49 483.79 270.81C483.18 270.13 482.42 269.58 481.67 268.97C481.13 268.56 480.58 268.08 480.1 267.6C479.56 267.12 477.31 263.98 479.01 263.57C479.42 263.51 479.83 263.64 480.17 263.85C480.51 264.05 480.72 264.33 480.99 264.6C481.67 265.14 482.63 265.49 483.65 265.42C483.93 265.42 484.13 265.35 484.34 265.28C484.68 265.08 484.75 264.8 484.81 264.46C484.81 263.51 484.13 262.69 483.31 261.87C482.42 261.05 481.88 260.16 481.13 259.28C480.31 258.25 479.35 257.43 479.22 256.2C480.72 255.18 482.15 258.52 484.13 258.05C485.5 257.71 484.81 256.2 483.99 255.32C482.15 253.27 480.92 251.02 480.24 248.63C479.9 247.47 479.63 246.24 479.42 245.01C479.35 244.53 479.42 241.94 477.92 242.62C477.51 242.83 477.31 243.24 477.24 243.65C476.62 245.63 476.08 247.67 475.33 249.65C474.78 251.22 474.51 253.41 473.14 254.7C472.39 255.45 471.51 256 471.57 257.02C471.57 257.09 471.57 257.16 471.64 257.23C471.71 257.36 471.92 257.36 472.05 257.43C473.62 257.84 474.71 256.95 475.74 256.2C475.87 256.14 476.01 256 476.21 255.93C476.42 255.86 476.62 255.86 476.76 256C477.1 256.27 476.83 257.02 476.76 257.36C476.56 258.39 475.87 259.34 475.05 260.16C473.76 261.53 471.98 262.62 470.96 264.12C470.75 264.39 470.55 264.73 470.62 265.08C470.69 265.76 471.57 266.1 472.32 266.1C473.42 266.17 474.03 265.55 474.37 264.87C474.64 264.39 474.85 263.92 475.46 263.71C475.6 263.64 475.81 263.64 475.94 263.71C476.01 263.78 476.01 263.78 476.01 263.85C476.08 264.8 475.81 265.76 475.26 266.65C474.71 267.53 473.83 268.15 472.8 268.83C472.26 269.17 471.78 269.58 471.37 270.06C471.1 270.4 470.96 270.81 471.03 271.15C471.1 271.56 471.44 271.9 471.92 272.04C472.6 272.24 473.35 271.97 473.83 271.56C474.1 271.35 475.53 269.65 476.01 270.33C476.21 270.54 475.81 271.49 475.74 271.76C475.46 272.65 475.12 273.54 474.64 274.43C474.58 274.49 474.51 274.63 474.51 274.7C473.86 274.22 470.6 271.81 464.75 267.46C423.6 267.46 400.74 267.46 396.16 267.46C396.5 266.99 396.57 266.37 396.44 265.9C395.82 263.92 393.64 262.55 392.07 261.05C391.32 260.3 390.64 259.55 390.29 258.66C390.23 258.46 389.82 257.64 390.02 257.43C390.43 256.95 391.11 257.57 391.32 257.84C391.66 258.25 392.07 258.73 392.48 259.14C392.82 259.48 393.16 259.75 393.57 259.96C394.05 260.16 394.59 260.23 395.07 260.09C395.69 259.89 396.03 259.34 396.03 258.8C396.09 257.98 395.62 257.23 395 256.55C394.39 255.86 393.64 255.32 392.89 254.7C392.34 254.29 391.8 253.82 391.32 253.34C390.77 252.86 388.52 249.72 390.23 249.31C390.64 249.24 391.04 249.38 391.39 249.58C391.73 249.79 391.93 250.06 392.2 250.34C392.89 250.88 393.84 251.22 394.87 251.15C395.14 251.15 395.34 251.09 395.55 251.02C395.89 250.81 395.96 250.54 396.03 250.2C396.03 249.24 395.34 248.42 394.53 247.61C393.64 246.79 393.09 245.9 392.34 245.01C391.52 243.99 390.57 243.17 390.43 241.94C391.93 240.92 393.36 244.26 395.34 243.78C396.71 243.44 396.03 241.94 395.21 241.05C393.36 239.01 392.14 236.75 391.45 234.37C391.11 233.21 390.84 231.98 390.64 230.75C390.57 230.27 390.64 227.68 389.13 228.36C388.72 228.56 388.52 228.97 388.45 229.38C387.84 231.36 387.29 233.41 386.54 235.39C385.99 236.96 385.72 239.14 384.36 240.44C383.61 241.19 382.72 241.74 382.79 242.76C382.79 242.83 382.79 242.9 382.86 242.96C382.92 243.1 383.13 243.1 383.26 243.17C384.83 243.58 385.93 242.69 386.95 241.94C387.09 241.87 387.22 241.74 387.43 241.67C387.63 241.6 387.84 241.6 387.97 241.74C388.31 242.01 388.04 242.76 387.97 243.1C387.77 244.12 387.09 245.08 386.27 245.9C384.97 247.26 383.2 248.36 382.17 249.86C381.97 250.13 381.76 250.47 381.83 250.81C381.9 251.5 382.79 251.84 383.54 251.84C384.63 251.9 385.24 251.29 385.58 250.61C385.86 250.13 386.06 249.65 386.68 249.45C386.81 249.38 387.02 249.38 387.15 249.45C387.22 249.52 387.22 249.52 387.22 249.58C387.29 250.54 387.02 251.5 386.47 252.38C385.93 253.27 385.04 253.88 384.02 254.57C383.47 254.91 382.99 255.32 382.58 255.79C382.31 256.14 382.17 256.55 382.24 256.89C382.31 257.3 382.65 257.64 383.13 257.77C383.81 257.98 384.56 257.71 385.04 257.3C385.31 257.09 386.75 255.39 387.22 256.07C387.43 256.27 387.02 257.23 386.95 257.5C386.68 258.39 386.34 259.28 385.86 260.16C384.9 261.94 383.47 263.51 381.69 264.87C380.94 265.42 380.06 266.1 380.13 266.92C380.13 267.12 380.19 267.26 380.33 267.4C378.95 267.4 372.03 267.4 359.58 267.4L336.52 258.52L240.5 258.52C239.27 258.69 238.58 258.78 238.45 258.8C237.56 257.23 235.79 256.07 234.42 254.77C233.67 254.02 232.99 253.27 232.65 252.38C232.58 252.18 232.17 251.36 232.37 251.15C232.78 250.68 233.47 251.29 233.67 251.56C234.01 251.97 234.42 252.45 234.83 252.86C235.17 253.2 235.51 253.47 235.92 253.68C236.4 253.88 236.95 253.95 237.42 253.82C238.04 253.61 238.38 253.06 238.38 252.52C238.45 251.7 237.97 250.95 237.36 250.27C236.74 249.58 235.99 249.04 235.24 248.42C234.69 248.01 234.15 247.54 233.67 247.06C233.13 246.58 230.87 243.44 232.58 243.03C232.99 242.96 233.4 243.1 233.74 243.31C234.08 243.51 234.29 243.78 234.56 244.06C235.24 244.6 236.2 244.94 237.22 244.88C237.49 244.88 237.7 244.81 237.9 244.74C238.24 244.53 238.31 244.26 238.38 243.92C238.38 242.96 237.7 242.15 236.88 241.33C235.99 240.51 235.45 239.62 234.69 238.73C233.88 237.71 232.92 236.89 232.78 235.66C234.29 234.64 235.72 237.98 237.7 237.51C239.06 237.16 238.38 235.66 237.56 234.78C235.72 232.73 234.49 230.48 233.81 228.09C233.47 226.93 233.19 225.7 232.99 224.47C232.92 223.99 232.99 221.4 231.49 222.08C231.08 222.29 230.87 222.7 230.81 223.11C230.19 225.08 229.64 227.13 228.89 229.11C228.35 230.68 228.08 232.86 226.71 234.16C225.96 234.91 225.07 235.46 225.14 236.48C225.14 236.55 225.14 236.62 225.21 236.69C225.28 236.82 225.48 236.82 225.62 236.89C227.19 237.3 228.28 236.41 229.3 235.66C229.44 235.59 229.58 235.46 229.78 235.39C229.99 235.32 230.19 235.32 230.33 235.46C230.67 235.73 230.4 236.48 230.33 236.82C230.12 237.85 229.44 238.8 228.62 239.62C227.32 240.99 225.55 242.08 224.53 243.58C224.32 243.85 224.12 244.19 224.19 244.53C224.25 245.22 225.14 245.56 225.89 245.56C226.98 245.63 227.6 245.01 227.94 244.33C228.21 243.85 228.42 243.37 229.03 243.17C229.17 243.1 229.37 243.1 229.51 243.17C229.58 243.24 229.58 243.24 229.58 243.31C229.64 244.26 229.37 245.22 228.83 246.1C228.28 246.99 227.39 247.61 226.37 248.29C225.82 248.63 225.35 249.04 224.94 249.52C224.66 249.86 224.53 250.27 224.59 250.61C224.66 251.02 225 251.36 225.48 251.5C226.16 251.7 226.92 251.43 227.39 251.02C227.67 250.81 229.1 249.11 229.58 249.79C229.78 249.99 229.37 250.95 229.3 251.22C229.03 252.11 228.69 253 228.21 253.88C227.26 255.66 225.82 257.23 224.05 258.59C223.3 259.14 222.41 259.82 222.48 260.64C222.48 260.78 222.55 260.91 222.62 260.98C219.46 261.43 203.7 263.66 175.32 267.67L0 267.67L-3.35 1050L735 1050L735 258.52L667.51 258.52C668.69 258.25 669.44 257.93 669.76 257.57ZM228.89 260.16C228.76 260.18 227.67 260.35 227.53 260.37C227.73 260.09 228.01 259.82 228.35 259.68C228.42 259.62 228.55 259.62 228.62 259.62C228.96 259.55 229.03 259.82 228.96 260.03C228.96 260.09 228.96 260.09 228.89 260.16ZM386.27 267.67C386.1 267.67 384.73 267.67 384.56 267.67C385.04 267.12 385.31 266.51 386.06 266.1C386.13 266.03 386.27 266.03 386.34 266.03C386.68 266.1 386.68 266.37 386.61 266.51C386.54 266.92 386.4 267.33 386.27 267.67ZM390.98 266.1C392.07 266.17 392.68 267.12 393.43 267.74C393.28 267.74 392.53 267.74 391.18 267.74C390.95 267.01 390.89 266.46 390.98 266.1ZM492.73 277.7C493.62 277.36 494.44 276.75 494.91 276.13C495.94 274.9 497.85 273.4 499.42 274.29C499.28 275.65 497.85 276.81 496.35 277.7C495.62 277.7 493.09 277.7 492.73 277.7ZM605.88 267.19C605.95 267.26 606.08 267.33 606.15 267.4C606.14 267.4 606.07 267.42 605.95 267.46C605.9 267.33 605.88 267.24 605.88 267.19ZM650.99 258.52C651.54 258.18 652.01 257.77 652.36 257.36C653.38 256.14 655.29 254.63 656.86 255.52C656.79 256.68 655.7 257.71 654.47 258.52C653.77 258.52 651.34 258.52 650.99 258.52ZM662.52 256.75C663.62 257.43 664.71 258.12 666.07 258.39C666.28 258.46 666.55 258.46 666.75 258.46C666.51 258.46 665.28 258.46 663.07 258.46C662.75 257.73 662.57 257.16 662.52 256.75Z" id="a1QQLJXA2j"></path></defs><g><g><g><use xlink:href="#a1QQLJXA2j" opacity="1" fill="#226b98" fill-opacity="1"></use><g><use xlink:href="#a1QQLJXA2j" opacity="1" fill-opacity="0" stroke="#000000" stroke-width="1" stroke-opacity="0"></use></g></g></g></g></svg>