<?xml version="1.0" encoding="UTF-8" standalone="no"?>
<!DOCTYPE svg PUBLIC "-//W3C//DTD SVG 1.1//EN" "http://www.w3.org/Graphics/SVG/1.1/DTD/svg11.dtd">
<svg version="1.1" xmlns="http://www.w3.org/2000/svg" xmlns:xlink="http://www.w3.org/1999/xlink" preserveAspectRatio="xMidYMid meet" viewBox="0 0 128 128" width="128" height="128"><defs><path d="M88.5 74.83L127.39 87.28L70.99 102.6L88.5 74.83Z" id="e3fd89Cnic"></path><radialGradient id="gradientb4p6owGK6n" gradientUnits="userSpaceOnUse" cx="63.18" cy="52.01" dx="137.26" dy="109.36" r="93.69"><stop style="stop-color: #000000;stop-opacity: 1" offset="0%"></stop><stop style="stop-color: #0a5615;stop-opacity: 1" offset="100%"></stop></radialGradient><path d="M106.33 34.99L77.32 72.43L127.39 87.09L106.33 34.99Z" id="n4jmlRDqM"></path><radialGradient id="gradienta1wGGGWu5V" gradientUnits="userSpaceOnUse" cx="69.85" cy="36.24" dx="119.55" dy="98.97" r="80.03"><stop style="stop-color: #000000;stop-opacity: 1" offset="0%"></stop><stop style="stop-color: #07380e;stop-opacity: 1" offset="100%"></stop></radialGradient><path d="M105.26 34.17L70.69 103.06L0.61 78.44L31.75 22.74L105.26 34.17Z" id="cgsrSiUXK"></path><radialGradient id="gradientdGgBKqKZZ" gradientUnits="userSpaceOnUse" cx="1.7" cy="16.9" dx="158.78" dy="186.9" r="231.46"><stop style="stop-color: #000000;stop-opacity: 1" offset="0%"></stop><stop style="stop-color: #388643;stop-opacity: 1" offset="100%"></stop></radialGradient><path d="M97.39 80.23C102.99 72.12 105.34 60.68 104.45 45.91C104.45 64.24 106.75 75.79 111.32 80.57C115.9 85.34 121.26 87.42 127.39 86.8C116.21 58.88 109.21 41.43 106.42 34.45C106.22 33.97 105.56 33.94 105.33 34.4C98.41 48.24 78.11 88.84 71.16 102.75C71.04 102.99 71.31 103.23 71.54 103.09C83.32 95.75 91.93 88.13 97.39 80.23Z" id="b2VnEUPm4K"></path></defs><g><g><g><use xlink:href="#e3fd89Cnic" opacity="1" fill="url(#gradientb4p6owGK6n)"></use></g><g><use xlink:href="#n4jmlRDqM" opacity="1" fill="url(#gradienta1wGGGWu5V)"></use></g><g><use xlink:href="#cgsrSiUXK" opacity="1" fill="url(#gradientdGgBKqKZZ)"></use><g><use xlink:href="#cgsrSiUXK" opacity="1" fill-opacity="0" stroke="#000000" stroke-width="0.5" stroke-opacity="1"></use></g></g><g><use xlink:href="#b2VnEUPm4K" opacity="1" fill="#317a3c" fill-opacity="1"></use><g><use xlink:href="#b2VnEUPm4K" opacity="1" fill-opacity="0" stroke="#000000" stroke-width="0.5" stroke-opacity="1"></use></g></g></g></g></svg>